<svg width="22" height="22" fill="none" xmlns="http://www.w3.org/2000/svg"><path d="M12.5 5.5a1.5 1.5 0 1 1-3 0 1.5 1.5 0 0 1 3 0Z" fill="#0F0F0F"/><path d="M5.051 7.684a1 1 0 0 0 .633 1.265 29.277 29.277 0 0 0 1.824.521c.581.146 1.273.298 1.97.402-.046.893-.157 1.534-.261 1.959l-2.111 4.222a1 1 0 1 0 1.788.894L11 12.737l2.106 4.21a1 1 0 1 0 1.788-.894l-2.11-4.222c-.104-.425-.216-1.066-.262-1.959a21.13 21.13 0 0 0 1.97-.402 29.237 29.237 0 0 0 1.82-.52c.514-.17.808-.752.637-1.266a1 1 0 0 0-1.265-.633 27.294 27.294 0 0 1-1.676.479C13.021 7.776 11.87 8 11 8c-.87 0-2.022-.224-3.007-.47a27.254 27.254 0 0 1-1.671-.477 1.01 1.01 0 0 0-1.27.63Z" fill="#0F0F0F"/><path fill-rule="evenodd" clip-rule="evenodd" d="M22 11c0 6.075-4.925 11-11 11S0 17.075 0 11 4.925 0 11 0s11 4.925 11 11ZM2.007 11a8.993 8.993 0 1 0 17.986 0 8.993 8.993 0 0 0-17.986 0Z" fill="#0F0F0F"/></svg>