<svg width="50" height="50" fill="none" xmlns="http://www.w3.org/2000/svg"><path fill="#fff" d="M0 0h50v50H0z"/><path d="m26.844 26.753-6.983 11.62-6.983-11.62h13.966Zm1.87-1.039H11l8.86 14.715 8.854-14.715ZM38.5 11.73l6.923 12.07H31.576L38.5 11.73Zm0-2.159-8.786 15.286h17.572L38.5 9.571ZM2.714 9.571 9.95 23.143l7.907-13.23L2.714 9.57ZM19.793 10.571 27.286 24h-15l7.507-13.429ZM29.252 27.143l7.605 13.286H21.286l7.73-13.286h.236ZM30.714 25.857l7.661 13.714 7.768-13.714H30.714Z" fill="#7E46B7"/></svg>