<svg width="24" height="23" fill="none" xmlns="http://www.w3.org/2000/svg"><path d="M17.127 1.642c.5.236.658.857.38 1.335-.276.478-.89.642-1.392.414a9.987 9.987 0 0 0-13.442 5.53c-.198.516-.749.832-1.282.687C.858 9.463.534 8.91.722 8.39a12 12 0 0 1 16.405-6.749Z" fill="#0F0F0F"/><path d="M20.02 8.408a9 9 0 0 0-16.989 3.335c-.02.08-.031.163-.031.249v4.833c0 .824-.204 1.312-.357 1.569-.11.182-.207.269-.226.285a1 1 0 0 0 1.138 1.645c.077-.052.17-.122.308-.26.147-.147.324-.357.494-.641C4.704 18.846 5 18 5 16.825v-4.5a7.002 7.002 0 0 1 13.74-1.732c.353 1.489.525 2.493.574 3.57.058 1.29-.058 2.717-.309 5.23a1 1 0 1 0 1.99.198c.249-2.487.383-4.06.316-5.52-.048-1.062-.201-2.047-.47-3.264a8.985 8.985 0 0 0-.15-.655c-.156-.655-.371-1.156-.67-1.744ZM1.173 10.502c-.539-.099-1.06.258-1.114.803a12 12 0 0 0 .327 4.207c.138.53.708.802 1.225.62.517-.18.784-.746.654-1.278a10.018 10.018 0 0 1-.248-3.19c.045-.546-.306-1.063-.844-1.162ZM23.998 12.3c.01.547-.467.96-1.013.924-.546-.036-.954-.509-.972-1.056a10.02 10.02 0 0 0-3.51-7.297c-.416-.355-.53-.969-.218-1.418.312-.45.932-.564 1.355-.215a12 12 0 0 1 4.358 9.062Z" fill="#0F0F0F"/><path d="M17.994 12.755c-.024.552-.564.898-1.104.782l-.354-.075c-.54-.116-.87-.652-.905-1.204a3.64 3.64 0 0 0-3.718-3.404 3.639 3.639 0 0 0-3.551 3.578c-.01.552-.313 1.104-.846 1.245l-.35.093c-.534.14-1.09-.178-1.14-.728a6 6 0 1 1 11.968-.287ZM8 15.992a1 1 0 1 0-2 0c0 1.604-.344 2.854-.678 3.69-.168.42-.334.736-.452.94-.055.094-.11.186-.173.274A1 1 0 0 0 6.3 22.092c.108-.15.207-.306.3-.465a9.22 9.22 0 0 0 .578-1.201c.416-1.038.822-2.54.822-4.434ZM17 14.992a1 1 0 0 1 1 1c0 1.797-.128 3.216-.259 4.194-.065.49-.13.868-.181 1.128a8.08 8.08 0 0 1-.09.42 1 1 0 0 1-1.94-.483 17.557 17.557 0 0 0 .23-1.329c.118-.897.24-2.228.24-3.93a1 1 0 0 1 1-1Z" fill="#0F0F0F"/><path d="M11.824 11.94c.727-.25.812.39.905 1.012.21 1.393.057 3.614-.224 6.44a1 1 0 0 0 1.99.199c.275-2.759.467-5.248.212-6.938-.125-.827-.386-1.694-1.016-2.254-.722-.641-1.642-.65-2.515-.352-.428.147-.819.353-1.133.66-.324.317-.513.69-.615 1.077a4.19 4.19 0 0 0-.111 1.1c.003.348.03.745.05 1.132.082 1.547.132 3.773-1.286 7.082a1 1 0 1 0 1.838.788c1.582-3.691 1.536-6.254 1.445-7.976-.023-.43-.045-.755-.047-1.044-.005-.465.028-.763.507-.927Z" fill="#0F0F0F"/></svg>