<svg width="588" height="492" fill="none" xmlns="http://www.w3.org/2000/svg"><path d="M167.587 201.584h242.046c5.944 0 10.763-4.853 10.763-10.84V12.249c0-5.987-4.819-10.84-10.763-10.84H167.587c-5.943 0-10.762 4.853-10.762 10.84v178.495c0 5.987 4.819 10.84 10.762 10.84Z" fill="#fff"/><path d="M409.633 202.031H167.588a11.177 11.177 0 0 1-7.92-3.31 11.339 11.339 0 0 1-3.286-7.977V12.249a11.34 11.34 0 0 1 3.286-7.978 11.178 11.178 0 0 1 7.92-3.31h242.045a11.18 11.18 0 0 1 7.921 3.31 11.343 11.343 0 0 1 3.286 7.978v178.495a11.343 11.343 0 0 1-3.286 7.977 11.18 11.18 0 0 1-7.921 3.31ZM167.588 1.855a10.294 10.294 0 0 0-7.293 3.048 10.45 10.45 0 0 0-3.026 7.346v178.495a10.452 10.452 0 0 0 3.026 7.346 10.294 10.294 0 0 0 7.293 3.047h242.045a10.293 10.293 0 0 0 7.293-3.047 10.443 10.443 0 0 0 3.026-7.346V12.249a10.44 10.44 0 0 0-3.026-7.346 10.292 10.292 0 0 0-7.293-3.048H167.588Z" fill="#292A2E"/><path d="m188.191 18.228-17.299 1.65c-1.787.17-3.098 1.767-2.928 3.566l1.643 17.424c.17 1.8 1.756 3.12 3.542 2.95l17.3-1.65c1.787-.17 3.098-1.767 2.928-3.566l-1.643-17.424c-.17-1.8-1.756-3.12-3.543-2.95Z" fill="#292A2E"/><path d="m237.455 56.021-17.278-1.871c-1.784-.193-3.386 1.107-3.579 2.904l-1.859 17.402c-.193 1.798 1.098 3.412 2.883 3.605l17.277 1.871c1.785.193 3.387-1.107 3.579-2.904l1.86-17.402c.192-1.798-1.099-3.411-2.883-3.605Z" fill="#fff"/><path d="M235.254 80.495c-.137 0-.275-.007-.411-.022l-17.277-1.872a3.783 3.783 0 0 1-2.543-1.401 3.833 3.833 0 0 1-.818-2.802l1.859-17.4a3.825 3.825 0 0 1 1.389-2.563 3.765 3.765 0 0 1 2.783-.822l17.276 1.87a3.784 3.784 0 0 1 2.545 1.401c.63.788.924 1.796.817 2.802l-1.859 17.401c-.1.935-.539 1.8-1.233 2.429a3.775 3.775 0 0 1-2.528.98Zm-.297-1.1a2.698 2.698 0 0 0 1.991-.59c.56-.454.918-1.113.995-1.833l1.86-17.402a2.746 2.746 0 0 0-.585-2.006 2.706 2.706 0 0 0-1.821-1.002l-17.278-1.872a2.686 2.686 0 0 0-1.991.589 2.758 2.758 0 0 0-.995 1.835l-1.859 17.4c-.075.72.135 1.442.586 2.006a2.712 2.712 0 0 0 1.821 1.002l17.276 1.872ZM314.118 83.613a.535.535 0 0 1-.447-.24C302.708 66.95 286.079 63.96 274.054 64.34a75.19 75.19 0 0 0-23.774 4.83.535.535 0 0 1-.7-.295.546.546 0 0 1 .287-.707 76.392 76.392 0 0 1 24.153-4.912c12.292-.39 29.307 2.677 40.545 19.512a.548.548 0 0 1-.17.767.533.533 0 0 1-.277.078Z" fill="#292A2E"/><path d="M314.317 83.835a.554.554 0 0 1-.147-.02l-11.031-3.139a.539.539 0 0 1-.372-.669.54.54 0 0 1 .664-.375l10.514 2.99 2.969-10.589a.536.536 0 0 1 .981-.11c.07.123.09.268.055.405l-3.115 11.111a.534.534 0 0 1-.518.396Z" fill="#292A2E"/><path d="m331.62 88.7-17.3 1.652c-1.787.17-3.098 1.768-2.928 3.567l1.64 17.425c.17 1.8 1.756 3.12 3.542 2.949l17.3-1.652c1.786-.171 3.097-1.768 2.928-3.567l-1.64-17.425c-.17-1.8-1.756-3.12-3.542-2.95Z" fill="#87ADF7"/><path d="m388.158 35.133-17.341-1.123c-1.791-.116-3.336 1.252-3.451 3.056l-1.115 17.467c-.116 1.804 1.243 3.36 3.034 3.476l17.341 1.123c1.791.116 3.336-1.252 3.452-3.056l1.115-17.467c.115-1.804-1.244-3.36-3.035-3.476Z" fill="#292A2E"/><path d="m397.956 92.131-17.277-1.872c-1.784-.193-3.387 1.107-3.579 2.904l-1.858 17.402c-.192 1.798 1.098 3.411 2.883 3.605l17.277 1.872c1.785.194 3.387-1.107 3.579-2.904l1.859-17.402c.192-1.797-1.099-3.411-2.884-3.605Z" fill="#8CB6AA"/><path d="m303.116 148.819-17.3 1.652c-1.786.171-3.098 1.768-2.928 3.568l1.64 17.424c.17 1.8 1.756 3.121 3.542 2.95l17.3-1.652c1.786-.171 3.097-1.768 2.928-3.568l-1.64-17.424c-.17-1.8-1.756-3.121-3.542-2.95Z" fill="#fff"/><path d="M287.762 174.97a3.78 3.78 0 0 1-2.547-.995 3.834 3.834 0 0 1-1.222-2.46l-1.641-17.425a3.842 3.842 0 0 1 .854-2.79 3.78 3.78 0 0 1 2.56-1.368l17.299-1.653a3.772 3.772 0 0 1 2.771.858 3.813 3.813 0 0 1 1.358 2.581l1.64 17.424a3.837 3.837 0 0 1-.853 2.79 3.78 3.78 0 0 1-2.56 1.368l-17.299 1.653a3.994 3.994 0 0 1-.36.017Zm15.667-25.623c-.087 0-.174.004-.26.012l-17.301 1.651a2.71 2.71 0 0 0-1.834.979 2.75 2.75 0 0 0-.611 1.998l1.641 17.424a2.74 2.74 0 0 0 .973 1.845 2.71 2.71 0 0 0 1.982.616l17.299-1.653a2.707 2.707 0 0 0 1.833-.979 2.751 2.751 0 0 0 .611-1.998l-1.64-17.424a2.739 2.739 0 0 0-.874-1.76 2.697 2.697 0 0 0-1.822-.713l.003.002Z" fill="#292A2E"/><path d="m191.571 142.926-17.299 1.652c-1.787.171-3.098 1.768-2.929 3.568l1.641 17.424c.169 1.8 1.755 3.12 3.542 2.95l17.299-1.653c1.787-.17 3.098-1.768 2.928-3.567l-1.64-17.425c-.17-1.799-1.755-3.12-3.542-2.949Z" fill="#87ADF7"/><path d="M329.976 79.822a.54.54 0 0 1-.535-.604 51.74 51.74 0 0 1 4.977-15.718c5.384-10.51 13.827-16.54 24.41-17.437a.536.536 0 0 1 .582.495.537.537 0 0 1-.491.586c-24.685 2.09-28.373 31.897-28.409 32.198a.536.536 0 0 1-.534.48Z" fill="#292A2E"/><path d="M353.708 52.518a.537.537 0 0 1-.528-.648.54.54 0 0 1 .147-.277l4.974-5.033-4.996-5.011a.545.545 0 0 1 .168-.892.539.539 0 0 1 .592.124l5.377 5.393a.544.544 0 0 1 0 .767l-5.354 5.417a.54.54 0 0 1-.38.16ZM294.975 140.719a.537.537 0 0 1-.514-.384c-.081-.265-7.824-26.601 12.221-37.525a.536.536 0 0 1 .801.419.548.548 0 0 1-.123.401.539.539 0 0 1-.166.134c-19.263 10.497-11.78 35.995-11.702 36.252a.553.553 0 0 1-.273.643.536.536 0 0 1-.242.058l-.002.002Z" fill="#292A2E"/><path d="M304.635 110.044a.54.54 0 0 1-.502-.739l2.246-5.812-5.769-2.264a.543.543 0 0 1-.018-.996.532.532 0 0 1 .407-.015l6.273 2.459a.525.525 0 0 1 .297.287.542.542 0 0 1 .009.415l-2.442 6.317a.538.538 0 0 1-.501.348ZM228.015 51.145a.537.537 0 0 1-.539-.542c0-8.238-2.413-14.526-7.175-18.69-8.453-7.39-21.6-5.608-21.732-5.589a.535.535 0 0 1-.609-.46.54.54 0 0 1 .457-.614c.557-.08 13.756-1.874 22.585 5.84 5.011 4.378 7.552 10.944 7.551 19.513a.547.547 0 0 1-.332.5.532.532 0 0 1-.206.042Z" fill="#292A2E"/><path d="M228.041 51.34h-.051a.532.532 0 0 1-.364-.195l-4.842-5.889a.542.542 0 0 1 .465-.886.54.54 0 0 1 .365.195l4.5 5.473 5.431-4.53a.538.538 0 0 1 .819.672.545.545 0 0 1-.132.164l-5.849 4.873a.535.535 0 0 1-.342.122Z" fill="#292A2E"/><path d="M239.944 110.967h-17.377c-1.794 0-3.249 1.465-3.249 3.273v17.503c0 1.807 1.455 3.273 3.249 3.273h17.377c1.795 0 3.25-1.466 3.25-3.273V114.24c0-1.808-1.455-3.273-3.25-3.273Z" fill="#8CB6AA"/><path d="M284.201 142.954a.545.545 0 0 1-.331-.115.547.547 0 0 1-.19-.296c-6.003-24.185-35.352-22.489-35.644-22.469a.548.548 0 0 1-.392-.133.54.54 0 0 1-.183-.373.536.536 0 0 1 .132-.394.53.53 0 0 1 .37-.185 48.85 48.85 0 0 1 15.979 2.118c7.684 2.418 17.526 8.054 20.781 21.17a.54.54 0 0 1-.391.658.532.532 0 0 1-.131.019Z" fill="#292A2E"/><path d="M284.276 143.136a.537.537 0 0 1-.312-.1l-6.093-4.355a.545.545 0 0 1 .222-.977.537.537 0 0 1 .402.093l5.647 4.037 4.026-5.88a.534.534 0 0 1 .746-.135.545.545 0 0 1 .14.751l-4.335 6.332a.539.539 0 0 1-.443.234Z" fill="#292A2E"/><path d="m548.957 491.86 1.058-.205-16.527-165.411-1.057.205 16.526 165.411ZM487.421 491.86l1.057-.205-16.526-165.411-1.057.205 16.526 165.411ZM351.399 491.86l-1.058-.205 16.527-165.411 1.057.205-16.526 165.411ZM412.935 491.86l-1.057-.205 16.526-165.411 1.057.205-16.526 165.411ZM434.846 253.441l-9.654 72.83 1.067.144 9.654-72.83-1.067-.144ZM545.658 253.441l-9.655 72.83 1.068.144 9.654-72.83-1.067-.144Z" fill="#494949"/><path d="M425.29 331.679h108.387c2.925 0 5.295-2.387 5.295-5.333s-2.37-5.334-5.295-5.334H425.29c-2.925 0-5.296 2.388-5.296 5.334 0 2.946 2.371 5.333 5.296 5.333Z" fill="#292A2E"/><path opacity=".8" d="M425.29 331.679h108.387c2.925 0 5.295-2.387 5.295-5.333s-2.37-5.334-5.295-5.334H425.29c-2.925 0-5.296 2.388-5.296 5.334 0 2.946 2.371 5.333 5.296 5.333Z" fill="#fff"/><path d="M419.456 326.346a5.9 5.9 0 0 1 1.711-4.152 5.816 5.816 0 0 1 4.122-1.723h108.388c1.547 0 3.031.619 4.125 1.721a5.897 5.897 0 0 1 1.709 4.155 5.897 5.897 0 0 1-1.709 4.154 5.812 5.812 0 0 1-4.125 1.721H425.289a5.82 5.82 0 0 1-4.123-1.723 5.908 5.908 0 0 1-1.71-4.153Zm5.833-4.791a4.741 4.741 0 0 0-3.363 1.403 4.81 4.81 0 0 0-1.393 3.388 4.81 4.81 0 0 0 1.393 3.388 4.741 4.741 0 0 0 3.363 1.403h108.388a4.742 4.742 0 0 0 3.364-1.403 4.81 4.81 0 0 0 1.393-3.388 4.81 4.81 0 0 0-1.393-3.388 4.742 4.742 0 0 0-3.364-1.403H425.289Z" fill="#292A2E"/><path d="M365.801 331.679h108.387c2.925 0 5.295-2.387 5.295-5.333s-2.37-5.334-5.295-5.334H365.801c-2.925 0-5.295 2.388-5.295 5.334 0 2.946 2.37 5.333 5.295 5.333Z" fill="#fff"/><path d="M359.964 326.346a5.904 5.904 0 0 1 1.712-4.153 5.818 5.818 0 0 1 4.125-1.722h108.387c1.547 0 3.031.619 4.125 1.721a5.897 5.897 0 0 1 1.709 4.155 5.897 5.897 0 0 1-1.709 4.154 5.812 5.812 0 0 1-4.125 1.721H365.801a5.816 5.816 0 0 1-4.125-1.722 5.908 5.908 0 0 1-1.712-4.154Zm5.837-4.79a4.743 4.743 0 0 0-4.395 2.957 4.824 4.824 0 0 0 0 3.667 4.78 4.78 0 0 0 2.574 2.593 4.725 4.725 0 0 0 1.821.365h108.387a4.738 4.738 0 0 0 3.364-1.404 4.807 4.807 0 0 0 1.393-3.387c0-1.271-.501-2.49-1.393-3.388a4.737 4.737 0 0 0-3.364-1.403H365.801ZM440.789 253.516h105.118c1.719 0 3.379-.63 4.67-1.772a7.148 7.148 0 0 0 2.348-4.436l6.953-53.784a7.182 7.182 0 0 0-.248-2.997 7.149 7.149 0 0 0-1.452-2.627 7.074 7.074 0 0 0-2.399-1.79 7.036 7.036 0 0 0-2.919-.634H447.742a7.04 7.04 0 0 0-4.671 1.772 7.144 7.144 0 0 0-2.349 4.437l-6.953 53.783a7.182 7.182 0 0 0 .248 2.997 7.1 7.1 0 0 0 3.853 4.418 7.035 7.035 0 0 0 2.919.633Z" fill="#292A2E"/><path opacity=".8" d="M440.789 253.516h105.118c1.719 0 3.379-.63 4.67-1.772a7.148 7.148 0 0 0 2.348-4.436l6.953-53.784a7.182 7.182 0 0 0-.248-2.997 7.149 7.149 0 0 0-1.452-2.627 7.074 7.074 0 0 0-2.399-1.79 7.036 7.036 0 0 0-2.919-.634H447.742a7.04 7.04 0 0 0-4.671 1.772 7.144 7.144 0 0 0-2.349 4.437l-6.953 53.783a7.182 7.182 0 0 0 .248 2.997 7.1 7.1 0 0 0 3.853 4.418 7.035 7.035 0 0 0 2.919.633Z" fill="#fff"/><path d="M435.069 251.45a7.714 7.714 0 0 1-1.83-6.052l6.953-53.783a7.708 7.708 0 0 1 2.53-4.768 7.6 7.6 0 0 1 5.021-1.912h105.118a7.551 7.551 0 0 1 3.141.682 7.631 7.631 0 0 1 2.582 1.926 7.706 7.706 0 0 1 1.829 6.053l-6.953 53.782a7.703 7.703 0 0 1-2.53 4.769 7.61 7.61 0 0 1-5.021 1.912h-105.12a7.576 7.576 0 0 1-3.139-.684 7.634 7.634 0 0 1-2.581-1.925Zm12.673-65.431a6.533 6.533 0 0 0-4.31 1.642 6.622 6.622 0 0 0-2.171 4.094l-6.954 53.783a6.61 6.61 0 0 0 1.571 5.196 6.543 6.543 0 0 0 2.217 1.654 6.5 6.5 0 0 0 2.696.586h105.118a6.529 6.529 0 0 0 4.311-1.642 6.61 6.61 0 0 0 2.173-4.094l6.953-53.783a6.628 6.628 0 0 0-1.571-5.196 6.53 6.53 0 0 0-2.216-1.654 6.5 6.5 0 0 0-2.696-.586H447.742Z" fill="#292A2E"/><path d="M434.845 253.516h105.118a7.05 7.05 0 0 0 4.67-1.772 7.148 7.148 0 0 0 2.348-4.436l6.953-53.784a7.182 7.182 0 0 0-.248-2.997 7.149 7.149 0 0 0-1.452-2.627 7.084 7.084 0 0 0-2.399-1.79 7.036 7.036 0 0 0-2.919-.634H441.799a7.05 7.05 0 0 0-4.67 1.772 7.144 7.144 0 0 0-2.347 4.435l-6.953 53.783a7.165 7.165 0 0 0 1.698 5.625 7.084 7.084 0 0 0 2.399 1.79 7.021 7.021 0 0 0 2.919.635Z" fill="#fff"/><path d="M429.123 251.45a7.698 7.698 0 0 1-1.831-6.052l6.954-53.783a7.702 7.702 0 0 1 2.531-4.769 7.595 7.595 0 0 1 5.022-1.911h105.118a7.555 7.555 0 0 1 3.141.682 7.618 7.618 0 0 1 2.581 1.926 7.713 7.713 0 0 1 1.83 6.053l-6.953 53.782a7.704 7.704 0 0 1-2.531 4.768 7.607 7.607 0 0 1-5.021 1.913H434.845a7.587 7.587 0 0 1-5.722-2.609Zm12.676-65.431a6.529 6.529 0 0 0-4.311 1.642 6.622 6.622 0 0 0-2.173 4.094l-6.953 53.783a6.633 6.633 0 0 0 .229 2.769 6.596 6.596 0 0 0 1.342 2.427 6.508 6.508 0 0 0 4.913 2.24h105.117a6.529 6.529 0 0 0 4.311-1.642 6.62 6.62 0 0 0 2.173-4.094l6.953-53.782a6.632 6.632 0 0 0-1.571-5.197 6.508 6.508 0 0 0-4.913-2.24H441.799Z" fill="#292A2E"/><path d="M355.398 463.206s-2.886 15.072-16.896 15.912c-14.011.84-10.973 12.082-10.973 12.082h53.54v-26.943l-25.671-1.051ZM403.437 453.691s4.015 14.807-8.188 21.79c-12.203 6.983-4.551 15.719-4.551 15.719l48.041-23.806-11.807-24.173-23.495 10.47Z" fill="#87ADF7"/><path d="m433.192 449.508-40.513-128.731h73.436c14.752 0 20.901-12.6 20.901-27.457 0-14.857-14.501-27.882-29.252-27.882h-99.112c-8.997 0-19.085 5.542-24.023 13.118-4.938 7.575-3.603 19.315-.026 27.629l64.876 158.707" fill="#262626"/><path opacity=".8" d="m433.192 449.508-40.513-128.731h73.436c14.752 0 20.901-12.6 20.901-27.457 0-14.857-14.501-27.882-29.252-27.882h-99.112c-8.997 0-19.085 5.542-24.023 13.118-4.938 7.575-3.603 19.315-.026 27.629l64.876 158.707" fill="#0A0A0A"/><path d="m385.255 474.011 12.813-153.234 88.946-.006c20.842-1.645 30.387-13.15 30.084-28.004-.3-14.666-7.672-29.151-22.168-29.151H375.05c-10.725.221-23.141 10.439-23.141 22.192L345.68 472.23" fill="#262626"/><path d="M523.166 263.795s3.95 25.946-2.311 40.371c-7.817 18.009-37.12 16.606-37.12 16.606l1.651-57.156 37.78.179Z" fill="#262626"/><path d="m527.52 260.862.114.006s-.082-2.209-.114-.006ZM527.377 260.862l.114.006s-.083-2.209-.114-.006Z" fill="#333"/><path d="M336.688 155.673c.21-.418.543-.76.954-.979a2.23 2.23 0 0 1 1.341-.244.206.206 0 0 1 .025-.119.21.21 0 0 1 .082-.063.201.201 0 0 1 .103-.012l-1.556-1.124a2.362 2.362 0 0 1-.769-2.99 2.237 2.237 0 0 1 2.844-1.013c-.004-.023.01-.044.014-.067l-.64-.461a2.328 2.328 0 0 1-.81-2.82 2.26 2.26 0 0 1 1.468-1.258 2.239 2.239 0 0 1 1.897.346l1.476 1.066c.004-.009 0-.019.006-.028.006-.008.021-.011.03-.02a2.282 2.282 0 0 1-.149-2.823c.697-1.128 2.305-.898 3.259-.209l8.684 6.042-1.551-2.638a2.374 2.374 0 0 1-.308-1.699 2.358 2.358 0 0 1 .926-1.453 2.247 2.247 0 0 1 1.749-.327 2.246 2.246 0 0 1 1.439 1.054l8.475 14.37a7.576 7.576 0 0 1 .843 5.603 7.529 7.529 0 0 1-3.272 4.61 11.276 11.276 0 0 1-6.39 1.767 11.283 11.283 0 0 1-6.279-2.133l-13.115-9.468a2.437 2.437 0 0 1-.776-2.91Z" fill="#E09E84"/><path d="M351.711 151.901a.208.208 0 0 1-.133.083.203.203 0 0 1-.153-.035l-8.252-5.756a.215.215 0 0 1-.085-.134.209.209 0 0 1 .167-.243.208.208 0 0 1 .155.033l8.252 5.757a.225.225 0 0 1 .087.135.203.203 0 0 1-.034.156l-.004.004ZM349.291 155.636a.21.21 0 0 1-.133.084.207.207 0 0 1-.153-.035l-9.207-6.424a.212.212 0 0 1-.054-.291.216.216 0 0 1 .29-.055l9.209 6.425a.207.207 0 0 1 .086.134.206.206 0 0 1-.033.157l-.005.005ZM346.693 159.698a.208.208 0 0 1-.287.048l-7.345-5.124a.21.21 0 0 1 .237-.344l7.345 5.125a.209.209 0 0 1 .086.216.208.208 0 0 1-.032.075l-.004.004Z" fill="#0C0C0C" opacity=".25"/><path d="m370.678 154.933 24.891 42.698 30.372-40.125 25.222 22.904-43.076 56.189-.282.399a17.244 17.244 0 0 1-6.674 5.513 17.107 17.107 0 0 1-16.668-1.228 17.297 17.297 0 0 1-5.807-6.433l-35.395-64.561 27.417-15.356Z" fill="#87ADF7"/><path d="M398.007 202.765a.317.317 0 0 0 .316-.306.319.319 0 0 0-.034-.157l-2.44-4.816a.318.318 0 0 0-.421-.13.324.324 0 0 0-.143.42l2.441 4.816a.313.313 0 0 0 .281.173ZM427.69 197.389l-.631.036.76 13.486.631-.037-.76-13.485Z" fill="#0C0C0C"/><path d="M507.895 99.786s1.166 15.012 4.584 20.423c9.841 15.578 12.843 33.198 3.274 42.532-9.568 9.334-71.269 10.183-76.188-10.972-4.14-17.812 4.283-19.831 6.169-34.586.853-6.676 3.25-20.684 3.25-20.684" fill="#0A0A0A"/><path d="M455.273 148.385c.108-.015 1.289 19.738 24.074 18.018 15.774-1.19 21.397-18.047 21.759-18.047-1.701-.364-4.564-.893-5.32-1.301-2.484-1.344-5.557-2.743-6.358-7.601-.461-2.801.323-17.126.081-19.959l-24.213 5.443c.339 5.984 2.706 19.855-5.593 22.31a72.347 72.347 0 0 1-4.43 1.137Z" fill="#E09E84"/><path opacity=".52" d="M464.957 141.581c.379-1.231.623-2.5.728-3.785a40.677 40.677 0 0 0-.158-8.803 26.452 26.452 0 0 0 13.382-5.906c.449 1.673 2.922 8.98 2.237 10.57-1.294 3.005-7.375 7.924-16.189 7.924Z" fill="#0C0C0C"/><path d="M468.166 135.364c9.556.819 21.862-3.171 24.274-16.004l2.175-11.58c2.412-12.834-2.326-24.51-14.321-26.8-11.996-2.286-22.918 6.408-25.329 19.242l-.963 5.126c-.927 4.924-2.886 28.555 14.164 30.016Z" fill="#E09E84"/><path d="M457.419 105.907a1.51 1.51 0 0 0 1.504-1.515c0-.836-.673-1.514-1.504-1.514-.83 0-1.503.678-1.503 1.514 0 .837.673 1.515 1.503 1.515ZM472.826 107.98a1.51 1.51 0 0 0 1.503-1.515c0-.837-.673-1.515-1.503-1.515a1.51 1.51 0 0 0-1.504 1.515 1.51 1.51 0 0 0 1.504 1.515ZM464.371 117.57a13.256 13.256 0 0 1-1.462-.373c-.706-.228-1.629-.607-1.507-1.247.136-.731 3.607-8.243 4.003-9.096a.31.31 0 0 1 .41-.15.31.31 0 0 1 .149.412c-1.481 3.2-3.865 8.46-3.957 8.948.08.228 1.251.661 2.457.892a.312.312 0 0 1 .196.124.315.315 0 0 1-.064.428.304.304 0 0 1-.223.061l-.002.001ZM466.148 123.111a12.547 12.547 0 0 1-5.459-2.089.31.31 0 0 1 .105-.564.304.304 0 0 1 .231.044c3.532 2.317 7.041 2.692 10.148 1.084a2.02 2.02 0 0 1 .194-.092.309.309 0 0 1 .235.01.31.31 0 0 1 .148.413.304.304 0 0 1-.174.16c-.024.01-.065.032-.121.061a9.18 9.18 0 0 1-5.307.973Z" fill="#0C0C0C"/><path d="m504.213 111.816-10.755-1.986c-8.144-3.32-10.606-17.521-10.606-17.521s-9.893 9.712-33.864 4.188c0 0 4.807-33.675 40.225-23.884 11.42 3.158 19.617 14.75 18.596 30.242-.719 10.857-3.596 8.961-3.596 8.961Z" fill="#0A0A0A"/><path d="M490.96 123.127c3.646.695 7.339-2.67 8.029-6.344.69-3.675-1.884-6.261-5.531-6.955l-2.341 2.102-3.291 10.598 3.134.599Z" fill="#E09E84"/><path d="M463.207 100.716a7.014 7.014 0 0 0-3.557-1.131 6.186 6.186 0 0 0-1.849.196 7.354 7.354 0 0 0-1.714.684.325.325 0 0 0-.124.421.322.322 0 0 0 .404.163l.023-.011a6.642 6.642 0 0 1 1.573-.542 5.435 5.435 0 0 1 1.639-.099 6.16 6.16 0 0 1 3.027 1.102l.029.021c.051.043.11.075.174.093a.478.478 0 0 0 .609-.363.501.501 0 0 0-.216-.519l-.018-.015ZM472.798 102.99a6.16 6.16 0 0 1 3.217.074 5.44 5.44 0 0 1 1.494.69c.466.305.893.667 1.27 1.08l.017.017a.32.32 0 0 0 .436-.005.326.326 0 0 0 .035-.437 7.448 7.448 0 0 0-1.352-1.261 6.205 6.205 0 0 0-1.654-.856 7.006 7.006 0 0 0-3.723-.24.495.495 0 0 0-.341.572.484.484 0 0 0 .544.381l.02-.005.037-.01ZM465.731 126.024a6.33 6.33 0 0 1-1.047-.212.31.31 0 0 1 .17-.596c2.062.596 3.235-.194 3.285-.229a.306.306 0 0 1 .429.076.312.312 0 0 1-.075.432 4.157 4.157 0 0 1-2.762.529ZM493.435 109.693l.108-.3c-13.626-4.927-10.294-18.395-10.259-18.53l-.305-.081c-.037.138-3.446 13.884 10.456 18.911Z" fill="#0C0C0C"/><path opacity=".1" d="M477.112 116.718c.124-1.162-1.051-2.242-2.624-2.413-1.573-.17-2.949.634-3.073 1.796-.124 1.162 1.051 2.242 2.624 2.413 1.573.17 2.949-.634 3.073-1.796ZM457.389 114.069c-.128 1.16-1.503 1.963-3.076 1.795a3.91 3.91 0 0 1-.8-.173 46.729 46.729 0 0 1-.083-3.941 3.572 3.572 0 0 1 1.334-.094c1.572.168 2.747 1.248 2.625 2.413Z" fill="#0C0C0C"/><path d="M426.964 191.876c.718 8.492 4.209 61.277 4.9 71.74l91.302.195c.539-9.436 6.744-50.688 8.781-69.137 1.945-17.605 5.761-26.419 2.962-31.624-4.57-8.506-17.058-13.421-25.574-14.582-5.199-.709-13.02-1.217-13.02-1.217s-.661 13.491-16.45 14.242c-21.493 1.021-20.057-14.242-20.164-14.242-3.482 0-23.372 2.219-28.239 5.125-13.258 7.907-6.021 21.503-4.498 39.5Z" fill="#87ADF7"/><path d="m367.7 197.808 8.801 43.086c.179.875.65 1.661 1.335 2.229a3.857 3.857 0 0 0 2.429.888l60.601.52a3.861 3.861 0 0 0 3.027-1.425 3.928 3.928 0 0 0 .803-3.267l-8.801-43.085a3.913 3.913 0 0 0-1.335-2.229 3.862 3.862 0 0 0-2.429-.888l-60.601-.52a3.847 3.847 0 0 0-1.674.367 3.886 3.886 0 0 0-2.122 2.599 3.938 3.938 0 0 0-.034 1.725Z" fill="#292A2E"/><path d="M424.21 228.413c-.033.567.14 1.127.485 1.576.345.45.84.758 1.393.869l1.865.415a.215.215 0 0 0-.139.146c-.004.04.005.08.025.114a2.248 2.248 0 0 0-1.631 2.039 2.436 2.436 0 0 0 .512 1.507c.333.43.802.734 1.328.863l15.753 3.524a11.14 11.14 0 0 0 2.454.272 11.271 11.271 0 0 0 5.277-1.314 11.367 11.367 0 0 0 4.064-3.636 7.568 7.568 0 0 0-1.746-10.351l-13.4-9.869a2.251 2.251 0 0 0-.999-.415l1.233 6.033-.329-.077-.07-.012-10.277-2.105c-1.144-.255-2.712.162-2.915 1.477a2.291 2.291 0 0 0 .18 1.489 2.27 2.27 0 0 0 1.058 1.053c-.006.006-.019.013-.019.026s.006.019.006.031l-1.776-.395a2.247 2.247 0 0 0-2.5 1.2c-.149.3-.23.629-.237.964 0 .536.184 1.055.52 1.469.337.415.805.699 1.326.805l.765.172c.007.026 0 .051.013.071a2.236 2.236 0 0 0-1.504.597 2.262 2.262 0 0 0-.715 1.462Z" fill="#E09E84"/><path d="M438.55 224.159a.205.205 0 0 1-.243.158l-9.833-2.031a.207.207 0 0 1-.168-.165.231.231 0 0 1 0-.083.204.204 0 0 1 .092-.134.206.206 0 0 1 .159-.028l9.833 2.031a.21.21 0 0 1 .162.247l-.002.005ZM437.781 228.552a.21.21 0 0 1-.244.158l-10.974-2.267a.21.21 0 0 1-.162-.247.22.22 0 0 1 .091-.13.212.212 0 0 1 .155-.032l10.973 2.266a.215.215 0 0 1 .132.09c.03.047.041.103.03.158l-.001.004ZM436.975 233.314a.209.209 0 0 1-.091.129.209.209 0 0 1-.154.03l-8.753-1.808a.21.21 0 0 1 .084-.41l8.753 1.808a.205.205 0 0 1 .131.089c.03.047.041.103.03.157v.005Z" fill="#0C0C0C" opacity=".25"/><path d="m444.777 245.742 85.467 15.557a17.255 17.255 0 0 0 7.882-.976 17.343 17.343 0 0 0 6.627-4.409 17.522 17.522 0 0 0 3.984-6.919 17.62 17.62 0 0 0 .508-7.983l-11.965-71.635a17.577 17.577 0 0 0-2.393-6.397 17.435 17.435 0 0 0-4.646-4.984 17.306 17.306 0 0 0-6.188-2.81 17.24 17.24 0 0 0-6.784-.205 17.279 17.279 0 0 0-6.344 2.43 17.405 17.405 0 0 0-4.935 4.694 17.55 17.55 0 0 0-2.771 6.241 17.606 17.606 0 0 0-.183 6.834l8.161 49.314-62.663-7.927-3.757 29.175Z" fill="#87ADF7"/><path d="M530.245 261.618a.316.316 0 0 0 .311-.292.321.321 0 0 0-.258-.34l-85.172-15.503 3.679-28.56 62.345 7.887a.315.315 0 0 0 .353-.367l-5.183-31.515a.317.317 0 0 0-.24-.259.317.317 0 0 0-.384.363l5.115 31.094-62.237-7.872a.32.32 0 0 0-.354.275l-3.757 29.175a.316.316 0 0 0 .257.354l85.468 15.554a.276.276 0 0 0 .057.006Z" fill="#0C0C0C"/><path d="m511.247 224.182-.1.629 5.497.887.1-.629-5.497-.887Z" fill="#0C0C0C"/><path d="M587.444 491.538H.377a.376.376 0 0 1-.377-.379.38.38 0 0 1 .377-.379h587.066a.378.378 0 0 1 .267.647.378.378 0 0 1-.267.111h.001Z" fill="#292A2E"/><path d="M587.444 491.538H.377a.376.376 0 0 1-.377-.379.38.38 0 0 1 .377-.379h587.066a.378.378 0 0 1 .267.647.378.378 0 0 1-.267.111h.001Z" fill="#292A2E" opacity=".65"/><path d="m36.478 491.86-1.057-.205 16.526-165.411 1.057.205L36.478 491.86ZM98.015 491.86l-1.058-.205 16.526-165.411 1.057.205L98.015 491.86ZM234.037 491.86l1.057-.205-16.526-165.411-1.058.205 16.527 165.411ZM172.5 491.86l1.058-.205-16.526-165.411-1.057.205L172.5 491.86ZM150.584 253.446l-1.068.144 9.655 72.83 1.067-.144-9.654-72.83ZM39.77 253.445l-1.067.144 9.655 72.83 1.067-.144-9.654-72.83Z" fill="#494949"/><path d="M160.146 321.013H51.758c-2.924 0-5.295 2.388-5.295 5.333v.001c0 2.945 2.37 5.333 5.295 5.333h108.388c2.924 0 5.295-2.388 5.295-5.333v-.001c0-2.945-2.371-5.333-5.295-5.333Z" fill="#292A2E"/><path opacity=".8" d="M160.146 321.013H51.758c-2.924 0-5.295 2.388-5.295 5.333v.001c0 2.945 2.37 5.333 5.295 5.333h108.388c2.924 0 5.295-2.388 5.295-5.333v-.001c0-2.945-2.371-5.333-5.295-5.333Z" fill="#fff"/><path d="M160.146 332.222H51.758a5.835 5.835 0 0 1-5.39-3.627 5.915 5.915 0 0 1 1.265-6.404 5.802 5.802 0 0 1 4.125-1.72h108.388c1.547 0 3.031.619 4.125 1.72a5.898 5.898 0 0 1 1.708 4.155 5.898 5.898 0 0 1-1.708 4.155 5.812 5.812 0 0 1-4.125 1.721ZM51.758 321.556a4.74 4.74 0 0 0-3.363 1.403A4.797 4.797 0 0 0 47 326.347a4.82 4.82 0 0 0 1.394 3.387 4.723 4.723 0 0 0 3.364 1.404h108.387a4.738 4.738 0 0 0 3.363-1.404 4.809 4.809 0 0 0 0-6.775 4.737 4.737 0 0 0-3.363-1.403H51.758Z" fill="#292A2E"/><path d="M219.635 321.013H111.247c-2.924 0-5.295 2.388-5.295 5.333v.001c0 2.945 2.371 5.333 5.295 5.333h108.388c2.924 0 5.295-2.388 5.295-5.333v-.001c0-2.945-2.371-5.333-5.295-5.333Z" fill="#fff"/><path d="M219.635 332.222H111.247a5.837 5.837 0 0 1-5.389-3.627 5.917 5.917 0 0 1 1.264-6.404 5.837 5.837 0 0 1 1.893-1.273 5.798 5.798 0 0 1 2.232-.447h108.388a5.801 5.801 0 0 1 4.125 1.72 5.892 5.892 0 0 1 1.708 4.155 5.898 5.898 0 0 1-1.708 4.155 5.837 5.837 0 0 1-4.125 1.721Zm-108.388-10.666a4.738 4.738 0 0 0-3.363 1.403 4.803 4.803 0 0 0-1.031 5.221 4.78 4.78 0 0 0 2.574 2.593 4.72 4.72 0 0 0 1.82.365h108.388a4.724 4.724 0 0 0 3.363-1.404 4.82 4.82 0 0 0 0-6.775 4.741 4.741 0 0 0-3.363-1.403H111.247ZM144.646 253.516H39.528a7.049 7.049 0 0 1-4.67-1.772 7.146 7.146 0 0 1-2.348-4.436l-6.953-53.784a7.152 7.152 0 0 1 1.7-5.624 7.077 7.077 0 0 1 2.4-1.79 7.035 7.035 0 0 1 2.918-.634h105.118c1.719 0 3.379.63 4.67 1.772a7.146 7.146 0 0 1 2.348 4.435l6.953 53.783a7.18 7.18 0 0 1-.247 2.997 7.133 7.133 0 0 1-1.453 2.628 7.077 7.077 0 0 1-2.399 1.791 7.036 7.036 0 0 1-2.919.634Z" fill="#292A2E"/><path opacity=".8" d="M144.646 253.516H39.528a7.049 7.049 0 0 1-4.67-1.772 7.146 7.146 0 0 1-2.348-4.436l-6.953-53.784a7.152 7.152 0 0 1 1.7-5.624 7.077 7.077 0 0 1 2.4-1.79 7.035 7.035 0 0 1 2.918-.634h105.118c1.719 0 3.379.63 4.67 1.772a7.146 7.146 0 0 1 2.348 4.435l6.953 53.783a7.18 7.18 0 0 1-.247 2.997 7.133 7.133 0 0 1-1.453 2.628 7.077 7.077 0 0 1-2.399 1.791 7.036 7.036 0 0 1-2.919.634Z" fill="#fff"/><path d="M144.646 254.058H39.528a7.6 7.6 0 0 1-5.02-1.912 7.704 7.704 0 0 1-2.532-4.768l-6.952-53.782a7.722 7.722 0 0 1 1.829-6.053 7.629 7.629 0 0 1 2.581-1.926 7.569 7.569 0 0 1 3.141-.683h105.118a7.61 7.61 0 0 1 5.021 1.912 7.71 7.71 0 0 1 2.531 4.769l6.953 53.783a7.714 7.714 0 0 1-1.83 6.052 7.618 7.618 0 0 1-2.581 1.926 7.555 7.555 0 0 1-3.141.682ZM32.575 186.019c-.93 0-1.85.2-2.696.586a6.535 6.535 0 0 0-2.217 1.654 6.6 6.6 0 0 0-1.342 2.427 6.633 6.633 0 0 0-.229 2.769l6.953 53.783a6.613 6.613 0 0 0 2.173 4.094 6.53 6.53 0 0 0 4.311 1.642h105.118a6.505 6.505 0 0 0 4.913-2.24 6.628 6.628 0 0 0 1.571-5.196l-6.95-53.783a6.622 6.622 0 0 0-2.173-4.094 6.529 6.529 0 0 0-4.311-1.642H32.575Z" fill="#292A2E"/><path d="M150.59 253.516H45.472a7.049 7.049 0 0 1-4.67-1.772 7.146 7.146 0 0 1-2.347-4.436L31.5 193.524a7.178 7.178 0 0 1 .248-2.997 7.142 7.142 0 0 1 1.453-2.627 7.077 7.077 0 0 1 2.399-1.79 7.035 7.035 0 0 1 2.918-.634h105.118c1.719 0 3.379.63 4.67 1.772a7.146 7.146 0 0 1 2.348 4.435l6.953 53.783a7.147 7.147 0 0 1-1.7 5.625 7.077 7.077 0 0 1-2.399 1.791 7.036 7.036 0 0 1-2.919.634Z" fill="#fff"/><path d="M150.59 254.058H45.472a7.6 7.6 0 0 1-5.02-1.912 7.704 7.704 0 0 1-2.531-4.768l-6.954-53.782a7.721 7.721 0 0 1 1.83-6.052 7.619 7.619 0 0 1 2.582-1.927 7.567 7.567 0 0 1 3.14-.682h105.118a7.6 7.6 0 0 1 5.021 1.912 7.704 7.704 0 0 1 2.531 4.768l6.953 53.783a7.714 7.714 0 0 1-1.83 6.052 7.637 7.637 0 0 1-2.581 1.926 7.57 7.57 0 0 1-3.141.682ZM38.52 186.019c-.93 0-1.85.2-2.698.586a6.539 6.539 0 0 0-2.217 1.654 6.63 6.63 0 0 0-1.571 5.197l6.953 53.782a6.619 6.619 0 0 0 2.173 4.095 6.53 6.53 0 0 0 4.312 1.641H150.59a6.508 6.508 0 0 0 4.913-2.24 6.596 6.596 0 0 0 1.342-2.427c.271-.897.349-1.84.229-2.769l-6.953-53.783a6.62 6.62 0 0 0-2.173-4.094 6.529 6.529 0 0 0-4.311-1.642H38.519Z" fill="#292A2E"/><path d="M139.004 102.498s6.985-5.31 8.716-17.535c1.34-9.465-7.328-3.333-7.328-3.333s.899-6.824-4.038-6.147c-4.937.677-7.699 7.846-7.699 7.846M110.84 76.284s-24.493 2.645-15.639 36.075l2.167.146 4.4.297" fill="#0C0C0C"/><path d="M134.901 147.268c-.108-.014-1.302 19.956-24.338 18.217-15.947-1.204-21.633-18.245-21.998-18.245 1.719-.368 3.844-.927 4.688-1.119a9.293 9.293 0 0 0 4.779-2.822 9.405 9.405 0 0 0 2.339-5.058c.466-2.831-.323-17.314-.082-20.178l24.479 5.507c-.342 6.05-2.736 20.073 5.653 22.555 1.398.408 2.901.786 4.48 1.143Z" fill="#E09E84"/><path opacity=".52" d="M125.111 140.391a17.97 17.97 0 0 1-.736-3.826 41.063 41.063 0 0 1 .162-8.9 26.748 26.748 0 0 1-13.529-5.97c-.455 1.691-2.955 9.078-2.262 10.685 1.306 3.038 7.454 8.011 16.365 8.011Z" fill="#0C0C0C"/><path d="M120.06 136.439c-9.657-.872-21.216-7.018-21.383-20.222l-.153-11.914c-.166-13.203 6.584-23.995 18.926-24.153 12.343-.159 21.704 10.427 21.871 23.631l.066 5.274a40 40 0 0 1-.392 5.413c-.633 4.745-1.615 11.959-4.812 16.84-3.017 4.607-7.954 5.688-14.123 5.131Z" fill="#E09E84"/><path d="M124.539 124.37c1.993.091 3.98-.291 5.799-1.116a.303.303 0 0 0 .167-.171.308.308 0 0 0 .022-.12.316.316 0 0 0-.195-.288.304.304 0 0 0-.238.002c-3.92 1.681-7.479 1.437-10.293-.712a1.974 1.974 0 0 0-.177-.127.31.31 0 0 0-.402.127.313.313 0 0 0 .092.415c.023.015.059.044.108.083a9.291 9.291 0 0 0 5.117 1.907ZM124.447 127.344c.36.022.721.013 1.08-.026a.312.312 0 0 0 .268-.344.313.313 0 0 0-.335-.28c-2.156.231-3.186-.764-3.23-.806a.308.308 0 0 0-.434.005.313.313 0 0 0-.007.437 4.208 4.208 0 0 0 2.658 1.014ZM135.246 111.594c.84 0 1.521-.685 1.521-1.531 0-.846-.681-1.531-1.521-1.531-.84 0-1.52.685-1.52 1.531 0 .846.68 1.531 1.52 1.531ZM120.393 110.655c.839 0 1.52-.686 1.52-1.531 0-.846-.681-1.532-1.52-1.532-.84 0-1.521.686-1.521 1.532 0 .845.681 1.531 1.521 1.531Z" fill="#0C0C0C"/><path d="M99.494 120.23c-3.75.048-6.843-3.955-6.892-7.733-.049-3.777 2.967-5.9 6.718-5.949l1.965 2.507 1.432 11.133-3.223.042Z" fill="#E09E84"/><path d="M103.226 114.159s1.266-18.683 6.891-19.837c3.746-.768 12.83 4.584 21.245 2.968 3.681-.705 7.175.21 7.531 1.961.141.694 2.434-9.272-3.331-16.834-4.59-6.02-19.609-7.722-26.442-5.749-18.921 5.467-10.572 30.703-10.572 30.703l.844 6.441 3.834.347ZM126.807 119.961h.024c1.208-.012 3.235-.169 3.227-1.08-.008-.754-2.141-8.879-2.384-9.803a.31.31 0 0 0-.377-.221.312.312 0 0 0-.219.379c.948 3.599 2.358 9.139 2.364 9.653-.117.217-1.366.44-2.617.453a.305.305 0 0 0-.214.087.313.313 0 0 0 .196.533v-.001Z" fill="#0C0C0C"/><path d="M130.931 101.76a7.267 7.267 0 0 1 3.882 0 6.437 6.437 0 0 1 1.766.778c.54.34 1.035.748 1.474 1.213a.455.455 0 0 1 .009.624.446.446 0 0 1-.618.037l-.027-.023a6.658 6.658 0 0 0-1.346-.971 5.414 5.414 0 0 0-1.527-.561 6.078 6.078 0 0 0-3.165.178l-.042.015a.658.658 0 0 1-.515-.027.688.688 0 0 1-.382-.648.696.696 0 0 1 .222-.469.694.694 0 0 1 .226-.135l.043-.011ZM121.936 102.53a6.068 6.068 0 0 0-3.113-.601 5.337 5.337 0 0 0-1.587.351 6.584 6.584 0 0 0-1.461.782l-.029.019a.446.446 0 0 1-.617-.113.452.452 0 0 1 .099-.624 7.545 7.545 0 0 1 1.623-1.004 6.407 6.407 0 0 1 1.853-.535 7.277 7.277 0 0 1 3.847.52.679.679 0 0 1 .35.894.674.674 0 0 1-.888.353c-.013-.006-.026-.011-.038-.018l-.039-.024ZM129.123 88.897c2.776-.584 4.335-4.394 3.481-8.51-.854-4.116-3.796-6.98-6.573-6.395-2.776.584-4.335 4.395-3.481 8.51.854 4.117 3.797 6.98 6.573 6.395Z" fill="#0C0C0C"/><path d="M283.97 463.206s2.887 15.072 16.898 15.912c14.01.84 10.972 12.082 10.972 12.082H258.3v-26.943l25.67-1.051ZM182.115 453.691s-4.017 14.807 8.188 21.79c12.205 6.983 4.551 15.719 4.551 15.719l-48.041-23.806 11.807-24.175 23.495 10.472Z" fill="#87ADF7"/><path d="m152.359 449.508 40.513-128.731h-73.436c-14.751 0-20.9-12.6-20.9-27.457 0-14.857 14.501-27.882 29.252-27.882h99.111c8.997 0 19.086 5.542 24.024 13.118 4.938 7.575 3.603 19.315.025 27.629l-64.875 158.707" fill="#262626"/><path opacity=".8" d="m152.359 449.508 40.513-128.731h-73.436c-14.751 0-20.9-12.6-20.9-27.457 0-14.857 14.501-27.882 29.252-27.882h99.111c8.997 0 19.086 5.542 24.024 13.118 4.938 7.575 3.603 19.315.025 27.629l-64.875 158.707" fill="#0A0A0A"/><path d="m255.222 477.203-67.74-156.426-88.946-.006c-20.842-1.645-30.386-13.15-30.083-28.004.3-14.666 7.672-29.151 22.168-29.151h119.881c10.724.221 19.162 12.159 23.141 22.192l56.315 181.819" fill="#262626"/><path d="M62.385 263.795s-3.95 25.946 2.312 40.371c7.816 18.009 37.12 16.606 37.12 16.606l-1.651-57.156-37.78.179Z" fill="#262626"/><path d="m236.19 263.285-62.83-13.114a15.843 15.843 0 0 1-7.091-3.497 16.002 16.002 0 0 1-4.547-6.501l-24.712-65.591a16.1 16.1 0 0 1-1.027-6.161 16.09 16.09 0 0 1 1.392-6.089 16.02 16.02 0 0 1 3.599-5.089 15.89 15.89 0 0 1 5.259-3.313 15.783 15.783 0 0 1 12.163.367 15.902 15.902 0 0 1 5.052 3.626 16.033 16.033 0 0 1 3.29 5.297l21.617 57.372 54.288 11.331s-5.363 31.588-6.453 31.362Z" fill="#87ADF7"/><path d="M163.521 191.239c-.726 8.585-5.868 62.15-6.568 72.725H62.426c-.543-9.538-2.306-50.033-4.365-68.685-1.967-17.798-2.68-27.955-.415-33.486 3.994-9.755 13.988-13.265 22.596-14.439 5.257-.717 13.163-1.231 13.163-1.231s.67 13.64 16.631 14.399c21.73 1.03 20.279-14.399 20.386-14.399 3.52 0 22.681 2.578 27.472 5.724 6.767 4.442 8.768 10.497 8.847 16.059.091 6.404-2.396 13.595-3.22 23.333Z" fill="#87ADF7"/><path d="M159.805 235.008a.268.268 0 0 1-.206-.095.27.27 0 0 1-.063-.197l2.454-29.692a.262.262 0 0 1 .185-.238c.034-.01.07-.014.106-.01a.27.27 0 0 1 .245.293l-2.453 29.692a.27.27 0 0 1-.268.247Z" fill="#0C0C0C"/><path d="m204.827 252.827 20.741-64.218a5.613 5.613 0 0 1 2.027-2.809 5.553 5.553 0 0 1 3.28-1.073h84.5c.881 0 1.75.21 2.534.613a5.595 5.595 0 0 1 1.982 1.705 5.649 5.649 0 0 1 .791 5.042l-20.741 64.218a5.623 5.623 0 0 1-2.028 2.809 5.555 5.555 0 0 1-3.279 1.073h-84.502a5.56 5.56 0 0 1-4.514-2.319 5.645 5.645 0 0 1-.791-5.041Z" fill="#292A2E"/><path d="m204.827 252.827 20.741-64.218a5.613 5.613 0 0 1 2.027-2.809 5.553 5.553 0 0 1 3.28-1.073h84.5c.881 0 1.75.21 2.534.613a5.595 5.595 0 0 1 1.982 1.705 5.649 5.649 0 0 1 .791 5.042l-20.741 64.218a5.623 5.623 0 0 1-2.028 2.809 5.555 5.555 0 0 1-3.279 1.073h-84.502a5.56 5.56 0 0 1-4.514-2.319 5.645 5.645 0 0 1-.791-5.041Z" fill="#292A2E"/><path d="M221.746 254.98h-56.565a2.56 2.56 0 0 0-2.551 2.57v.066a2.56 2.56 0 0 0 2.551 2.571h56.565a2.561 2.561 0 0 0 2.552-2.571v-.066a2.56 2.56 0 0 0-2.552-2.57Z" fill="#292A2E"/><path d="M221.746 254.98h-56.565a2.56 2.56 0 0 0-2.551 2.57v.066a2.56 2.56 0 0 0 2.551 2.571h56.565a2.561 2.561 0 0 0 2.552-2.571v-.066a2.56 2.56 0 0 0-2.552-2.57Z" fill="#292A2E"/><path d="M262.754 234.516c4.895 0 8.863-3.997 8.863-8.927 0-4.929-3.968-8.926-8.863-8.926-4.894 0-8.862 3.997-8.862 8.926 0 4.93 3.968 8.927 8.862 8.927Z" fill="#fff"/><path d="m200.099 237.784-14.118-4.984 2.027-.141a2.58 2.58 0 0 0 1.698-.857 2.615 2.615 0 0 0 .66-1.794 2.53 2.53 0 0 0-.877-1.776 2.491 2.491 0 0 0-1.884-.581l-24.975 2.673.646 8.084a12.701 12.701 0 0 0 2.703 6.873 12.558 12.558 0 0 0 6.056 4.176l10.816 3.394a2.536 2.536 0 0 0 1.714-.037 2.563 2.563 0 0 0 1.306-1.12 2.52 2.52 0 0 0-.392-2.95.216.216 0 0 0 .088-.147.214.214 0 0 0-.045-.166l1.992.63c.622.21 1.3.175 1.897-.099a2.601 2.601 0 0 0 1.319-1.376 2.526 2.526 0 0 0 .012-1.719 2.5 2.5 0 0 0-1.089-1.324.231.231 0 0 0 .062-.05l.819.259a2.539 2.539 0 0 0 1.715-.037 2.564 2.564 0 0 0 1.305-1.12 2.53 2.53 0 0 0-.905-3.365.3.3 0 0 0 .008-.051l5.879 2.076a2.336 2.336 0 0 0 1.797-.101 2.36 2.36 0 0 0 1.2-1.351 2.39 2.39 0 0 0-.1-1.811 2.353 2.353 0 0 0-1.342-1.208h.008Z" fill="#E09E84"/><path opacity=".2" d="M192.433 240.41a.199.199 0 0 1-.08-.014l-5.687-2.08a.237.237 0 0 1-.018-.436.236.236 0 0 1 .179-.007l5.687 2.082a.24.24 0 0 1 .123.104.24.24 0 0 1-.052.299.234.234 0 0 1-.151.055l-.001-.003ZM189.558 244.575a.228.228 0 0 1-.078-.013l-4.483-1.602a.235.235 0 0 1-.142-.302.234.234 0 0 1 .299-.143l4.483 1.602a.231.231 0 0 1 .123.103.237.237 0 0 1-.051.3.232.232 0 0 1-.151.055ZM185.338 248.8a.217.217 0 0 1-.084-.016l-2.1-.806a.237.237 0 0 1-.095-.387.248.248 0 0 1 .078-.054.24.24 0 0 1 .184.001l2.099.806c.051.02.094.057.121.105a.236.236 0 0 1-.204.351h.001Z" fill="#0A0A0A"/><path d="m173.683 225.54-59.222-.04-22.404-55.048-33.422 14.153 27.953 65.333.274.651a16.846 16.846 0 0 0 6.599 7.664 16.67 16.67 0 0 0 9.768 2.472l71.351-4.246-.897-30.939Z" fill="#87ADF7"/><path d="M102.247 261.025a17.003 17.003 0 0 1-9.343-2.82 17.187 17.187 0 0 1-6.29-7.509l-.273-.65-23.818-55.67.494-.214 24.093 56.321a16.636 16.636 0 0 0 6.499 7.53 16.46 16.46 0 0 0 9.604 2.441l71.09-4.23-.88-30.412-59.142-.04-17.228-42.326.498-.206 17.091 41.99 59.302.04.912 31.465-.261.015-71.351 4.246c-.333.019-.665.029-.997.029Z" fill="#0C0C0C"/><path d="m458.165 265.383-1.072.109 22.697 226.319 1.072-.109-22.697-226.319ZM36.413 265.39 13.662 491.703l1.071.109 22.751-226.314-1.071-.108ZM130.214 265.386l-22.713 226.317 1.072.109 22.712-226.317-1.071-.109ZM552.005 265.382l-1.072.109 22.771 226.312 1.071-.109-22.77-226.312Z" fill="#494949"/><path d="M572.472 260.995H17.395c-2.437 0-4.412 1.99-4.412 4.443 0 2.454 1.975 4.444 4.412 4.444h555.077c2.436 0 4.411-1.99 4.411-4.444 0-2.453-1.975-4.443-4.411-4.443Z" fill="#292A2E"/><path opacity=".8" d="M572.472 260.995H17.395c-2.437 0-4.412 1.99-4.412 4.443 0 2.454 1.975 4.444 4.412 4.444h555.077c2.436 0 4.411-1.99 4.411-4.444 0-2.453-1.975-4.443-4.411-4.443Z" fill="#fff"/><path d="M572.472 270.424H17.397a4.933 4.933 0 0 1-3.533-1.442 5.017 5.017 0 0 1 0-7.087 4.924 4.924 0 0 1 3.533-1.442h555.075a4.935 4.935 0 0 1 3.467 1.478 5.007 5.007 0 0 1 0 7.014 4.932 4.932 0 0 1-3.467 1.479Zm-555.075-8.886a3.837 3.837 0 0 0-2.768 1.126 3.923 3.923 0 0 0 0 5.549 3.855 3.855 0 0 0 2.768 1.126h555.075a3.859 3.859 0 0 0 2.709-1.158 3.917 3.917 0 0 0 0-5.485 3.859 3.859 0 0 0-2.709-1.158H17.397Z" fill="#292A2E"/><path d="M572.472 260.995H114.821c-2.436 0-4.411 1.99-4.411 4.443 0 2.454 1.975 4.444 4.411 4.444h457.651c2.436 0 4.411-1.99 4.411-4.444 0-2.453-1.975-4.443-4.411-4.443Z" fill="#fff"/><path d="M572.472 270.424H114.821a4.932 4.932 0 0 1-3.467-1.479 5.002 5.002 0 0 1-1.431-3.507c0-1.313.514-2.573 1.431-3.507a4.935 4.935 0 0 1 3.467-1.478h457.651a4.935 4.935 0 0 1 3.467 1.478 5.006 5.006 0 0 1 1.431 3.507 5.002 5.002 0 0 1-1.431 3.507 4.932 4.932 0 0 1-3.467 1.479Zm-457.651-8.886a3.859 3.859 0 0 0-2.709 1.158 3.917 3.917 0 0 0 0 5.485 3.859 3.859 0 0 0 2.709 1.158h457.651a3.859 3.859 0 0 0 2.709-1.158 3.917 3.917 0 0 0 0-5.485 3.859 3.859 0 0 0-2.709-1.158H114.821Z" fill="#292A2E"/></svg>