<svg width="588" height="492" viewBox="0 0 588 492" fill="none" xmlns="http://www.w3.org/2000/svg">
<path d="M167.587 201.584L409.633 201.584C415.577 201.584 420.396 196.731 420.396 190.744V12.2487C420.396 6.2619 415.577 1.4086 409.633 1.4086L167.587 1.4086C161.644 1.4086 156.825 6.2619 156.825 12.2487V190.744C156.825 196.731 161.644 201.584 167.587 201.584Z" fill="white"/>
<path d="M409.633 202.031H167.588C164.617 202.028 161.769 200.837 159.668 198.721C157.567 196.605 156.385 193.736 156.382 190.744V12.2487C156.385 9.25622 157.567 6.38726 159.668 4.27126C161.769 2.15526 164.617 0.965048 167.588 0.961746L409.633 0.961746C412.604 0.965047 415.453 2.15525 417.554 4.27123C419.655 6.38721 420.836 9.25617 420.84 12.2487V190.744C420.836 193.736 419.655 196.605 417.554 198.721C415.453 200.837 412.604 202.028 409.633 202.031ZM167.588 1.85542C164.852 1.85858 162.23 2.95459 160.295 4.90302C158.361 6.85146 157.273 9.49319 157.269 12.2487V190.744C157.273 193.499 158.361 196.141 160.295 198.09C162.23 200.038 164.852 201.134 167.588 201.137H409.633C412.369 201.134 414.992 200.038 416.926 198.09C418.861 196.141 419.949 193.499 419.952 190.744V12.2487C419.949 9.49314 418.861 6.85141 416.926 4.90299C414.992 2.95457 412.369 1.85858 409.633 1.85542H167.588Z" fill="#292A2E"/>
<path d="M188.191 18.2276L170.892 19.8772C169.105 20.0475 167.794 21.6445 167.964 23.4442L169.607 40.8683C169.777 42.6679 171.363 43.9887 173.149 43.8183L190.449 42.1688C192.236 41.9984 193.547 40.4014 193.377 38.6018L191.734 21.1777C191.564 19.378 189.978 18.0573 188.191 18.2276Z" fill="#292A2E"/>
<path d="M237.455 56.0214L220.177 54.15C218.393 53.9567 216.791 55.2571 216.598 57.0544L214.739 74.4564C214.546 76.2538 215.837 77.8675 217.622 78.0608L234.899 79.9321C236.684 80.1254 238.286 78.8251 238.478 77.0277L240.338 59.6257C240.53 57.8284 239.239 56.2146 237.455 56.0214Z" fill="white"/>
<path d="M235.254 80.4953C235.117 80.4952 234.979 80.4877 234.843 80.473L217.566 78.6006C216.567 78.4912 215.653 77.9874 215.023 77.1996C214.392 76.4118 214.098 75.4044 214.205 74.3985L216.064 56.9974C216.117 56.4991 216.267 56.0162 216.505 55.5764C216.744 55.1366 217.066 54.7484 217.453 54.4339C217.841 54.1195 218.286 53.885 218.763 53.7439C219.241 53.6028 219.741 53.5577 220.236 53.6114L237.512 55.4839C238.511 55.5924 239.426 56.096 240.057 56.884C240.687 57.672 240.981 58.6798 240.874 59.686L239.015 77.0871C238.915 78.0219 238.476 78.8867 237.782 79.5156C237.088 80.1446 236.188 80.4934 235.254 80.4953ZM234.957 79.3945C235.672 79.472 236.388 79.2602 236.948 78.8059C237.508 78.3515 237.866 77.6917 237.943 76.9716L239.803 59.5699C239.88 58.8497 239.669 58.1282 239.218 57.5641C238.767 57.0001 238.112 56.6396 237.397 56.5619L220.119 54.69C219.765 54.6516 219.407 54.6838 219.066 54.7849C218.724 54.8859 218.405 55.0537 218.128 55.2787C217.851 55.5038 217.62 55.7816 217.45 56.0964C217.279 56.4112 217.172 56.7568 217.133 57.1134L215.274 74.5145C215.199 75.2346 215.409 75.9557 215.86 76.5196C216.312 77.0835 216.966 77.4442 217.681 77.5225L234.957 79.3945Z" fill="#292A2E"/>
<path d="M314.118 83.6134C314.03 83.6135 313.943 83.5917 313.865 83.5499C313.787 83.5081 313.72 83.4476 313.671 83.3737C302.708 66.9503 286.079 63.9602 274.054 64.3398C265.923 64.6516 257.895 66.2824 250.28 69.1693C250.148 69.223 250.001 69.2222 249.87 69.167C249.739 69.1118 249.635 69.0067 249.58 68.8747C249.526 68.7426 249.525 68.5942 249.579 68.4618C249.633 68.3294 249.736 68.2237 249.867 68.1677C257.603 65.233 265.759 63.5744 274.02 63.2558C286.312 62.8664 303.327 65.9335 314.565 82.768C314.619 82.8495 314.65 82.9445 314.655 83.0426C314.66 83.1408 314.639 83.2385 314.593 83.3253C314.547 83.4121 314.479 83.4847 314.395 83.5353C314.312 83.586 314.216 83.6127 314.118 83.6128V83.6134Z" fill="#292A2E"/>
<path d="M314.317 83.8352C314.268 83.835 314.218 83.8281 314.17 83.8146L303.139 80.6764C303.001 80.6374 302.885 80.5449 302.815 80.4194C302.746 80.2939 302.728 80.1457 302.767 80.0073C302.806 79.8688 302.897 79.7516 303.022 79.6813C303.147 79.611 303.294 79.5935 303.431 79.6325L313.945 82.6226L316.914 72.0331C316.956 71.8978 317.048 71.7842 317.171 71.7166C317.295 71.649 317.44 71.6327 317.575 71.6712C317.71 71.7098 317.825 71.8 317.895 71.9228C317.965 72.0455 317.985 72.191 317.95 72.3281L314.835 83.4393C314.803 83.5531 314.735 83.6533 314.642 83.7247C314.549 83.7962 314.435 83.835 314.317 83.8352Z" fill="#292A2E"/>
<path d="M331.62 88.6997L314.32 90.352C312.533 90.5226 311.222 92.1199 311.392 93.9195L313.032 111.344C313.202 113.144 314.788 114.464 316.574 114.293L333.874 112.641C335.66 112.47 336.971 110.873 336.802 109.074L335.162 91.6492C334.992 89.8496 333.406 88.529 331.62 88.6997Z" fill="#87ADF7"/>
<path d="M388.158 35.1329L370.817 34.0098C369.026 33.8938 367.481 35.2622 367.366 37.0662L366.251 54.5327C366.135 56.3367 367.494 57.8931 369.285 58.0091L386.626 59.1322C388.417 59.2482 389.962 57.8798 390.078 56.0758L391.193 38.6093C391.308 36.8053 389.949 35.2489 388.158 35.1329Z" fill="#292A2E"/>
<path d="M397.956 92.1313L380.679 90.2589C378.895 90.0656 377.292 91.3658 377.1 93.1632L375.242 110.565C375.05 112.363 376.34 113.976 378.125 114.17L395.402 116.042C397.187 116.236 398.789 114.935 398.981 113.138L400.84 95.7358C401.032 93.9385 399.741 92.3247 397.956 92.1313Z" fill="#8CB6AA"/>
<path d="M303.116 148.819L285.816 150.471C284.03 150.642 282.718 152.239 282.888 154.039L284.528 171.463C284.698 173.263 286.284 174.584 288.07 174.413L305.37 172.761C307.156 172.59 308.467 170.993 308.298 169.193L306.658 151.769C306.488 149.969 304.902 148.648 303.116 148.819Z" fill="white"/>
<path d="M287.762 174.97C286.82 174.968 285.912 174.614 285.215 173.975C284.519 173.336 284.083 172.459 283.993 171.515L282.352 154.09C282.259 153.083 282.566 152.08 283.206 151.3C283.846 150.52 284.767 150.028 285.766 149.932L303.065 148.279C303.56 148.232 304.06 148.283 304.535 148.431C305.011 148.578 305.453 148.818 305.836 149.137C306.22 149.457 306.537 149.849 306.77 150.292C307.003 150.734 307.147 151.219 307.194 151.718L308.834 169.142C308.928 170.149 308.621 171.152 307.981 171.932C307.341 172.712 306.42 173.204 305.421 173.3L288.122 174.953C288.001 174.964 287.88 174.97 287.762 174.97ZM303.429 149.347C303.342 149.347 303.255 149.351 303.169 149.359L285.868 151.01C285.152 151.079 284.492 151.431 284.034 151.989C283.576 152.547 283.356 153.266 283.423 153.987L285.064 171.411C285.133 172.131 285.483 172.795 286.037 173.256C286.591 173.717 287.304 173.938 288.019 173.872L305.318 172.219C306.034 172.15 306.693 171.798 307.151 171.24C307.609 170.681 307.829 169.963 307.762 169.242L306.122 151.818C306.058 151.142 305.746 150.515 305.248 150.058C304.75 149.6 304.1 149.346 303.426 149.345L303.429 149.347Z" fill="#292A2E"/>
<path d="M191.571 142.926L174.272 144.578C172.485 144.749 171.174 146.346 171.343 148.146L172.984 165.57C173.153 167.37 174.739 168.69 176.526 168.52L193.825 166.867C195.612 166.697 196.923 165.099 196.753 163.3L195.113 145.875C194.943 144.076 193.358 142.755 191.571 142.926Z" fill="#87ADF7"/>
<path d="M329.976 79.8223C329.956 79.8223 329.935 79.8212 329.914 79.8191C329.844 79.8109 329.776 79.7889 329.714 79.7543C329.653 79.7197 329.598 79.6732 329.554 79.6174C329.51 79.5616 329.478 79.4976 329.458 79.4291C329.439 79.3606 329.433 79.289 329.441 79.2182C330.25 73.7434 331.931 68.436 334.418 63.5003C339.802 52.9894 348.245 46.9609 358.828 46.0629C358.971 46.0508 359.112 46.0962 359.221 46.189C359.33 46.2818 359.398 46.4144 359.41 46.5577C359.422 46.701 359.377 46.8433 359.285 46.9532C359.193 47.0631 359.061 47.1316 358.919 47.1437C334.234 49.2347 330.546 79.0414 330.51 79.3424C330.495 79.4744 330.432 79.5962 330.334 79.6847C330.236 79.7732 330.108 79.8221 329.976 79.8223Z" fill="#292A2E"/>
<path d="M353.708 52.5176C353.602 52.5177 353.498 52.486 353.409 52.4265C353.321 52.367 353.252 52.2825 353.211 52.1834C353.17 52.0844 353.159 51.9755 353.18 51.8703C353.2 51.7651 353.252 51.6684 353.327 51.5925L358.301 46.5596L353.305 41.549C353.254 41.4991 353.212 41.4393 353.184 41.3732C353.156 41.3071 353.141 41.236 353.14 41.164C353.139 41.092 353.153 41.0206 353.18 40.9539C353.207 40.8872 353.246 40.8266 353.297 40.7755C353.347 40.7245 353.407 40.6841 353.473 40.6567C353.54 40.6293 353.61 40.6154 353.682 40.6159C353.753 40.6164 353.824 40.6312 353.89 40.6595C353.956 40.6877 354.015 40.7289 354.065 40.7806L359.442 46.1741C359.543 46.2758 359.6 46.4137 359.6 46.5575C359.6 46.7012 359.543 46.8391 359.442 46.9408L354.088 52.3576C354.038 52.4082 353.979 52.4484 353.914 52.4758C353.849 52.5033 353.779 52.5175 353.708 52.5176Z" fill="#292A2E"/>
<path d="M294.975 140.719C294.86 140.719 294.748 140.682 294.655 140.613C294.563 140.544 294.494 140.446 294.461 140.335C294.38 140.07 286.637 113.734 306.682 102.81C306.744 102.774 306.813 102.752 306.884 102.743C306.955 102.735 307.027 102.741 307.096 102.761C307.165 102.781 307.229 102.814 307.285 102.859C307.341 102.905 307.387 102.961 307.421 103.024C307.455 103.087 307.476 103.157 307.483 103.229C307.49 103.301 307.483 103.373 307.462 103.442C307.441 103.511 307.406 103.575 307.36 103.63C307.314 103.685 307.258 103.731 307.194 103.764C287.931 114.261 295.414 139.759 295.492 140.016C295.516 140.097 295.522 140.182 295.508 140.266C295.493 140.35 295.46 140.429 295.41 140.497C295.36 140.565 295.295 140.62 295.219 140.659C295.144 140.697 295.061 140.717 294.977 140.717L294.975 140.719Z" fill="#292A2E"/>
<path d="M304.635 110.044C304.547 110.044 304.461 110.022 304.383 109.981C304.306 109.94 304.24 109.88 304.19 109.808C304.141 109.735 304.11 109.651 304.1 109.563C304.09 109.476 304.102 109.387 304.133 109.305L306.379 103.493L300.61 101.229C300.479 101.175 300.375 101.071 300.319 100.941C300.263 100.81 300.261 100.663 300.312 100.531C300.363 100.398 300.464 100.291 300.592 100.233C300.721 100.174 300.867 100.169 300.999 100.218L307.272 102.677C307.338 102.702 307.398 102.741 307.449 102.79C307.5 102.84 307.541 102.899 307.569 102.964C307.598 103.029 307.613 103.099 307.615 103.17C307.616 103.242 307.604 103.312 307.578 103.379L305.136 109.696C305.097 109.798 305.029 109.886 304.939 109.948C304.85 110.01 304.743 110.044 304.635 110.044Z" fill="#292A2E"/>
<path d="M228.015 51.1451C227.872 51.1451 227.735 51.088 227.634 50.9863C227.533 50.8846 227.476 50.7466 227.476 50.6028C227.476 42.3651 225.063 36.0769 220.301 31.9133C211.848 24.5237 198.701 26.305 198.569 26.324C198.428 26.3444 198.284 26.3073 198.17 26.221C198.056 26.1347 197.98 26.0063 197.96 25.8639C197.94 25.7215 197.977 25.5769 198.062 25.4618C198.148 25.3467 198.276 25.2707 198.417 25.2503C198.974 25.1695 212.173 23.3762 221.002 31.0895C226.013 35.4684 228.554 42.0338 228.553 50.6028C228.553 50.674 228.539 50.7445 228.512 50.8103C228.485 50.8761 228.445 50.9359 228.396 50.9863C228.346 51.0366 228.286 51.0766 228.221 51.1038C228.156 51.1311 228.086 51.1451 228.015 51.1451Z" fill="#292A2E"/>
<path d="M228.041 51.3392C228.024 51.3392 228.007 51.3392 227.99 51.3392C227.92 51.3326 227.851 51.312 227.789 51.2787C227.726 51.2454 227.671 51.2 227.626 51.1451L222.784 45.2565C222.693 45.1457 222.649 45.003 222.663 44.8598C222.676 44.7165 222.745 44.5845 222.855 44.4927C222.965 44.401 223.107 44.357 223.249 44.3705C223.391 44.3839 223.522 44.4538 223.614 44.5646L228.114 50.0378L233.545 45.5087C233.6 45.4633 233.662 45.4291 233.73 45.4082C233.798 45.3873 233.869 45.3799 233.939 45.3866C234.009 45.3933 234.078 45.4139 234.14 45.4472C234.203 45.4806 234.258 45.5259 234.303 45.5808C234.348 45.6357 234.382 45.699 234.403 45.767C234.424 45.8351 234.431 45.9066 234.424 45.9775C234.418 46.0484 234.397 46.1173 234.364 46.1802C234.331 46.2432 234.286 46.2989 234.232 46.3443L228.383 51.2167C228.287 51.2963 228.165 51.3396 228.041 51.3392Z" fill="#292A2E"/>
<path d="M239.944 110.967H222.567C220.773 110.967 219.318 112.432 219.318 114.24V131.743C219.318 133.55 220.773 135.016 222.567 135.016H239.944C241.739 135.016 243.194 133.55 243.194 131.743V114.24C243.194 112.432 241.739 110.967 239.944 110.967Z" fill="#8CB6AA"/>
<path d="M284.201 142.954C284.081 142.953 283.965 142.913 283.87 142.839C283.776 142.764 283.709 142.66 283.68 142.543C277.677 118.358 248.328 120.054 248.036 120.074C247.965 120.079 247.894 120.069 247.827 120.047C247.76 120.024 247.698 119.988 247.644 119.941C247.591 119.894 247.547 119.837 247.516 119.773C247.484 119.709 247.466 119.639 247.461 119.568C247.456 119.497 247.465 119.426 247.488 119.358C247.511 119.29 247.546 119.228 247.593 119.174C247.64 119.12 247.696 119.076 247.76 119.045C247.823 119.013 247.892 118.994 247.963 118.989C253.369 118.805 258.768 119.521 263.942 121.107C271.626 123.525 281.468 129.161 284.723 142.277C284.741 142.346 284.744 142.418 284.734 142.489C284.723 142.559 284.699 142.627 284.663 142.688C284.626 142.749 284.578 142.802 284.522 142.845C284.465 142.887 284.4 142.918 284.332 142.935C284.289 142.947 284.245 142.953 284.201 142.954Z" fill="#292A2E"/>
<path d="M284.276 143.136C284.164 143.136 284.055 143.101 283.964 143.036L277.871 138.681C277.755 138.598 277.676 138.471 277.652 138.329C277.628 138.188 277.661 138.042 277.744 137.925C277.827 137.808 277.952 137.728 278.093 137.704C278.234 137.68 278.379 137.714 278.495 137.797L284.142 141.834L288.168 135.954C288.249 135.837 288.373 135.757 288.513 135.732C288.653 135.706 288.797 135.738 288.914 135.819C289.031 135.901 289.112 136.025 289.138 136.166C289.164 136.307 289.134 136.452 289.054 136.57L284.719 142.902C284.678 142.961 284.626 143.012 284.566 143.05C284.506 143.089 284.439 143.116 284.369 143.128C284.338 143.134 284.307 143.136 284.276 143.136Z" fill="#292A2E"/>
<path d="M548.957 491.86L550.015 491.655L533.488 326.244L532.431 326.449L548.957 491.86Z" fill="#494949"/>
<path d="M487.421 491.86L488.478 491.655L471.952 326.244L470.895 326.449L487.421 491.86Z" fill="#494949"/>
<path d="M351.399 491.86L350.341 491.655L366.868 326.244L367.925 326.449L351.399 491.86Z" fill="#494949"/>
<path d="M412.935 491.86L411.878 491.655L428.404 326.244L429.461 326.449L412.935 491.86Z" fill="#494949"/>
<path d="M434.846 253.441L425.192 326.271L426.259 326.415L435.913 253.585L434.846 253.441Z" fill="#494949"/>
<path d="M545.658 253.441L536.003 326.271L537.071 326.415L546.725 253.585L545.658 253.441Z" fill="#494949"/>
<path d="M425.29 331.679H533.677C536.602 331.679 538.972 329.292 538.972 326.346V326.346C538.972 323.4 536.602 321.012 533.677 321.012H425.29C422.365 321.012 419.994 323.4 419.994 326.346V326.346C419.994 329.292 422.365 331.679 425.29 331.679Z" fill="#292A2E"/>
<path opacity="0.8" d="M425.29 331.679H533.677C536.602 331.679 538.972 329.292 538.972 326.346V326.346C538.972 323.4 536.602 321.012 533.677 321.012H425.29C422.365 321.012 419.994 323.4 419.994 326.346V326.346C419.994 329.292 422.365 331.679 425.29 331.679Z" fill="white"/>
<path d="M419.456 326.346C419.458 324.788 420.073 323.295 421.167 322.194C422.26 321.092 423.743 320.473 425.289 320.471H533.677C535.224 320.471 536.708 321.09 537.802 322.192C538.896 323.294 539.511 324.788 539.511 326.347C539.511 327.905 538.896 329.399 537.802 330.501C536.708 331.603 535.224 332.222 533.677 332.222H425.289C423.743 332.22 422.26 331.601 421.166 330.499C420.073 329.397 419.458 327.904 419.456 326.346ZM425.289 321.555C424.028 321.555 422.818 322.06 421.926 322.958C421.034 323.857 420.533 325.075 420.533 326.346C420.533 327.617 421.034 328.835 421.926 329.734C422.818 330.632 424.028 331.137 425.289 331.137H533.677C534.939 331.137 536.149 330.632 537.041 329.734C537.933 328.835 538.434 327.617 538.434 326.346C538.434 325.075 537.933 323.857 537.041 322.958C536.149 322.06 534.939 321.555 533.677 321.555H425.289Z" fill="#292A2E"/>
<path d="M365.801 331.679H474.188C477.113 331.679 479.483 329.292 479.483 326.346V326.346C479.483 323.4 477.113 321.012 474.188 321.012H365.801C362.876 321.012 360.506 323.4 360.506 326.346V326.346C360.506 329.292 362.876 331.679 365.801 331.679Z" fill="white"/>
<path d="M359.964 326.346C359.966 324.788 360.582 323.294 361.676 322.193C362.77 321.091 364.254 320.472 365.801 320.471H474.188C475.735 320.471 477.219 321.09 478.313 322.192C479.407 323.294 480.022 324.788 480.022 326.347C480.022 327.905 479.407 329.399 478.313 330.501C477.219 331.603 475.735 332.222 474.188 332.222H365.801C364.253 332.221 362.77 331.602 361.676 330.5C360.582 329.398 359.966 327.904 359.964 326.346ZM365.801 321.556C365.176 321.556 364.557 321.68 363.98 321.92C363.403 322.161 362.879 322.514 362.437 322.959C361.995 323.404 361.645 323.932 361.406 324.513C361.167 325.095 361.044 325.717 361.044 326.347C361.044 326.976 361.167 327.599 361.406 328.18C361.645 328.761 361.995 329.29 362.437 329.734C362.879 330.179 363.403 330.532 363.98 330.773C364.557 331.014 365.176 331.138 365.801 331.138H474.188C475.45 331.138 476.66 330.633 477.552 329.734C478.444 328.836 478.945 327.617 478.945 326.347C478.945 325.076 478.444 323.857 477.552 322.959C476.66 322.06 475.45 321.556 474.188 321.556H365.801Z" fill="#292A2E"/>
<path d="M440.789 253.516H545.907C547.626 253.516 549.286 252.886 550.577 251.744C551.868 250.601 552.703 249.025 552.925 247.308L559.878 193.524C560.008 192.519 559.923 191.497 559.63 190.527C559.337 189.558 558.842 188.662 558.178 187.9C557.514 187.138 556.696 186.528 555.779 186.11C554.862 185.692 553.867 185.476 552.86 185.476H447.742C446.023 185.475 444.362 186.105 443.071 187.248C441.779 188.39 440.944 189.968 440.722 191.685L433.769 245.468C433.639 246.473 433.724 247.495 434.017 248.465C434.31 249.435 434.806 250.331 435.47 251.093C436.135 251.854 436.953 252.465 437.87 252.883C438.787 253.3 439.782 253.517 440.789 253.516Z" fill="#292A2E"/>
<path opacity="0.8" d="M440.789 253.516H545.907C547.626 253.516 549.286 252.886 550.577 251.744C551.868 250.601 552.703 249.025 552.925 247.308L559.878 193.524C560.008 192.519 559.923 191.497 559.63 190.527C559.337 189.558 558.842 188.662 558.178 187.9C557.514 187.138 556.696 186.528 555.779 186.11C554.862 185.692 553.867 185.476 552.86 185.476H447.742C446.023 185.475 444.362 186.105 443.071 187.248C441.779 188.39 440.944 189.968 440.722 191.685L433.769 245.468C433.639 246.473 433.724 247.495 434.017 248.465C434.31 249.435 434.806 250.331 435.47 251.093C436.135 251.854 436.953 252.465 437.87 252.883C438.787 253.3 439.782 253.517 440.789 253.516Z" fill="white"/>
<path d="M435.069 251.45C434.354 250.63 433.821 249.666 433.506 248.623C433.19 247.579 433.099 246.48 433.239 245.398L440.192 191.615C440.435 189.769 441.334 188.075 442.722 186.847C444.111 185.618 445.895 184.939 447.743 184.935H552.861C553.945 184.934 555.015 185.167 556.002 185.617C556.989 186.067 557.869 186.724 558.584 187.543C559.298 188.363 559.831 189.327 560.147 190.371C560.462 191.414 560.553 192.514 560.413 193.596L553.46 247.378C553.218 249.224 552.319 250.918 550.93 252.147C549.541 253.375 547.757 254.054 545.909 254.059H440.789C439.706 254.058 438.636 253.825 437.65 253.375C436.664 252.925 435.784 252.269 435.069 251.45ZM447.742 186.019C446.156 186.023 444.624 186.607 443.432 187.661C442.241 188.716 441.469 190.171 441.261 191.755L434.307 245.538C434.187 246.467 434.265 247.41 434.536 248.307C434.807 249.203 435.265 250.03 435.878 250.734C436.492 251.438 437.248 252.002 438.095 252.388C438.942 252.774 439.861 252.974 440.791 252.974H545.909C547.496 252.97 549.028 252.387 550.22 251.332C551.413 250.278 552.185 248.823 552.393 247.238L559.346 193.455C559.466 192.527 559.388 191.583 559.117 190.687C558.846 189.791 558.389 188.963 557.775 188.259C557.162 187.555 556.406 186.991 555.559 186.605C554.712 186.219 553.793 186.019 552.863 186.019H447.742Z" fill="#292A2E"/>
<path d="M434.845 253.516H539.963C541.682 253.516 543.341 252.886 544.633 251.744C545.924 250.601 546.759 249.025 546.981 247.308L553.934 193.524C554.064 192.519 553.979 191.497 553.686 190.527C553.393 189.558 552.898 188.662 552.234 187.9C551.569 187.138 550.752 186.528 549.835 186.11C548.918 185.692 547.923 185.476 546.916 185.476H441.799C440.08 185.476 438.421 186.106 437.129 187.248C435.838 188.39 435.004 189.967 434.782 191.683L427.829 245.466C427.698 246.471 427.782 247.493 428.075 248.463C428.368 249.433 428.863 250.329 429.527 251.091C430.192 251.853 431.009 252.463 431.926 252.881C432.843 253.3 433.838 253.516 434.845 253.516Z" fill="white"/>
<path d="M429.123 251.45C428.408 250.63 427.875 249.666 427.559 248.623C427.244 247.579 427.153 246.48 427.292 245.398L434.246 191.615C434.488 189.769 435.388 188.074 436.777 186.846C438.166 185.617 439.95 184.938 441.799 184.935H546.917C548 184.934 549.071 185.167 550.058 185.617C551.045 186.067 551.925 186.724 552.639 187.543C553.354 188.363 553.887 189.327 554.202 190.371C554.518 191.414 554.609 192.514 554.469 193.596L547.516 247.378C547.273 249.224 546.374 250.918 544.985 252.146C543.596 253.375 541.812 254.054 539.964 254.059H434.845C433.762 254.058 432.691 253.826 431.704 253.376C430.718 252.926 429.838 252.269 429.123 251.45ZM441.799 186.019C440.212 186.023 438.68 186.606 437.488 187.661C436.296 188.716 435.524 190.17 435.315 191.755L428.362 245.538C428.242 246.467 428.32 247.41 428.591 248.307C428.862 249.203 429.319 250.03 429.933 250.734C430.547 251.438 431.302 252.002 432.149 252.388C432.997 252.774 433.916 252.974 434.846 252.974H539.963C541.55 252.97 543.082 252.387 544.274 251.332C545.466 250.278 546.238 248.823 546.447 247.238L553.4 193.456C553.52 192.527 553.442 191.583 553.171 190.687C552.9 189.791 552.443 188.963 551.829 188.259C551.215 187.556 550.46 186.992 549.613 186.605C548.765 186.219 547.846 186.019 546.916 186.019H441.799Z" fill="#292A2E"/>
<path d="M355.398 463.206C355.398 463.206 352.512 478.278 338.502 479.118C324.491 479.958 327.529 491.2 327.529 491.2H381.069V464.257L355.398 463.206Z" fill="#87ADF7"/>
<path d="M403.437 453.691C403.437 453.691 407.452 468.498 395.249 475.481C383.046 482.464 390.698 491.2 390.698 491.2L438.739 467.394L426.932 443.221L403.437 453.691Z" fill="#87ADF7"/>
<path d="M433.192 449.508L392.679 320.777H466.115C480.867 320.777 487.016 308.177 487.016 293.32C487.016 278.463 472.515 265.438 457.764 265.438H358.652C349.655 265.438 339.567 270.98 334.629 278.556C329.691 286.131 331.026 297.871 334.603 306.185L399.479 464.892" fill="#262626"/>
<path opacity="0.8" d="M433.192 449.508L392.679 320.777H466.115C480.867 320.777 487.016 308.177 487.016 293.32C487.016 278.463 472.515 265.438 457.764 265.438H358.652C349.655 265.438 339.567 270.98 334.629 278.556C329.691 286.131 331.026 297.871 334.603 306.185L399.479 464.892" fill="#0A0A0A"/>
<path d="M385.255 474.011L398.068 320.777L487.014 320.771C507.856 319.126 517.401 307.621 517.098 292.767C516.798 278.101 509.426 263.616 494.93 263.616H375.05C364.325 263.837 351.909 274.055 351.909 285.808L345.68 472.23" fill="#262626"/>
<path d="M523.166 263.795C523.166 263.795 527.116 289.741 520.855 304.166C513.038 322.175 483.735 320.772 483.735 320.772L485.386 263.616L523.166 263.795Z" fill="#262626"/>
<path d="M527.52 260.862L527.634 260.868C527.634 260.868 527.552 258.659 527.52 260.862Z" fill="#333333"/>
<path d="M527.377 260.862L527.491 260.868C527.491 260.868 527.408 258.659 527.377 260.862Z" fill="#333333"/>
<path d="M336.688 155.673C336.898 155.255 337.231 154.913 337.642 154.694C338.053 154.475 338.521 154.389 338.983 154.45C338.979 154.409 338.988 154.367 339.008 154.331C339.03 154.303 339.058 154.282 339.09 154.268C339.123 154.255 339.158 154.251 339.193 154.256L337.637 153.132C337.172 152.811 336.838 152.332 336.697 151.782C336.555 151.232 336.616 150.65 336.868 150.142C337.133 149.648 337.571 149.271 338.096 149.084C338.621 148.897 339.197 148.913 339.712 149.129C339.708 149.106 339.722 149.085 339.726 149.062L339.086 148.601C338.65 148.297 338.33 147.85 338.182 147.336C338.035 146.823 338.068 146.273 338.276 145.781C338.413 145.475 338.616 145.203 338.87 144.986C339.124 144.768 339.422 144.61 339.744 144.523C340.066 144.436 340.403 144.422 340.731 144.482C341.059 144.542 341.37 144.674 341.641 144.869L343.117 145.935C343.121 145.926 343.117 145.916 343.123 145.907C343.129 145.899 343.144 145.896 343.153 145.887C342.814 145.503 342.615 145.015 342.588 144.502C342.561 143.989 342.708 143.482 343.004 143.064C343.701 141.936 345.309 142.166 346.263 142.855L354.947 148.897L353.396 146.259C353.084 145.753 352.974 145.146 353.088 144.56C353.203 143.975 353.534 143.456 354.014 143.107C354.268 142.936 354.555 142.818 354.855 142.762C355.156 142.706 355.465 142.712 355.763 142.78C356.061 142.848 356.343 142.977 356.59 143.158C356.837 143.339 357.045 143.569 357.202 143.834L365.677 158.204C366.672 159.89 366.974 161.9 366.52 163.807C366.067 165.714 364.893 167.368 363.248 168.417C361.34 169.634 359.115 170.249 356.858 170.184C354.601 170.119 352.415 169.376 350.579 168.051L337.464 158.583C337.029 158.256 336.715 157.792 336.574 157.264C336.434 156.736 336.474 156.175 336.688 155.673Z" fill="#E09E84"/>
<g opacity="0.25">
<path d="M351.711 151.901C351.679 151.945 351.631 151.975 351.578 151.984C351.524 151.993 351.469 151.981 351.425 151.949L343.173 146.193C343.129 146.161 343.098 146.113 343.088 146.059C343.079 146.004 343.091 145.948 343.122 145.903C343.153 145.858 343.201 145.826 343.255 145.816C343.309 145.806 343.364 145.818 343.41 145.849L351.662 151.606C351.684 151.622 351.703 151.642 351.718 151.665C351.733 151.688 351.744 151.713 351.749 151.741C351.754 151.768 351.753 151.795 351.748 151.822C351.742 151.849 351.731 151.875 351.715 151.897L351.711 151.901Z" fill="#0C0C0C"/>
</g>
<g opacity="0.25">
<path d="M349.291 155.636C349.259 155.681 349.211 155.71 349.158 155.72C349.104 155.729 349.049 155.716 349.005 155.685L339.798 149.261C339.753 149.229 339.722 149.181 339.712 149.126C339.702 149.072 339.713 149.015 339.744 148.97C339.777 148.925 339.825 148.895 339.878 148.885C339.932 148.875 339.987 148.886 340.034 148.915L349.243 155.34C349.265 155.355 349.284 155.375 349.299 155.398C349.314 155.421 349.324 155.447 349.329 155.474C349.334 155.501 349.334 155.529 349.328 155.556C349.323 155.583 349.312 155.608 349.296 155.631L349.291 155.636Z" fill="#0C0C0C"/>
</g>
<g opacity="0.25">
<path d="M346.693 159.698C346.661 159.742 346.613 159.772 346.559 159.781C346.506 159.79 346.451 159.777 346.406 159.746L339.061 154.622C339.017 154.59 338.988 154.541 338.979 154.488C338.97 154.434 338.982 154.379 339.013 154.334C339.044 154.289 339.091 154.258 339.144 154.248C339.197 154.237 339.252 154.248 339.298 154.278L346.643 159.403C346.666 159.418 346.685 159.438 346.7 159.461C346.715 159.484 346.725 159.51 346.73 159.537C346.735 159.564 346.735 159.592 346.729 159.619C346.723 159.646 346.713 159.671 346.697 159.694L346.693 159.698Z" fill="#0C0C0C"/>
</g>
<path d="M370.678 154.933L395.569 197.631L425.941 157.506L451.163 180.41L408.087 236.599L407.805 236.998C406.081 239.377 403.784 241.274 401.131 242.511C398.477 243.749 395.555 244.285 392.639 244.07C389.723 243.855 386.909 242.896 384.463 241.283C382.016 239.67 380.018 237.456 378.656 234.85L343.261 170.289L370.678 154.933Z" fill="#87ADF7"/>
<path d="M398.007 202.765C398.061 202.765 398.115 202.751 398.162 202.725C398.209 202.698 398.249 202.66 398.277 202.613C398.305 202.567 398.321 202.514 398.323 202.459C398.325 202.405 398.314 202.351 398.289 202.302L395.849 197.486C395.809 197.414 395.743 197.36 395.665 197.336C395.586 197.311 395.501 197.319 395.428 197.356C395.355 197.394 395.299 197.459 395.273 197.537C395.246 197.615 395.251 197.701 395.285 197.776L397.726 202.592C397.752 202.644 397.793 202.688 397.842 202.718C397.892 202.749 397.949 202.765 398.007 202.765Z" fill="#0C0C0C"/>
<path d="M427.69 197.389L427.059 197.425L427.819 210.911L428.45 210.874L427.69 197.389Z" fill="#0C0C0C"/>
<path d="M507.895 99.7863C507.895 99.7863 509.061 114.798 512.479 120.209C522.32 135.787 525.322 153.407 515.753 162.741C506.185 172.075 444.484 172.924 439.565 151.769C435.425 133.957 443.848 131.938 445.734 117.183C446.587 110.507 448.984 96.4995 448.984 96.4995" fill="#0A0A0A"/>
<path d="M455.273 148.385C455.381 148.37 456.562 168.123 479.347 166.403C495.121 165.213 500.744 148.356 501.106 148.356C499.405 147.992 496.542 147.463 495.786 147.055C493.302 145.711 490.229 144.312 489.428 139.454C488.967 136.653 489.751 122.328 489.509 119.495L465.296 124.938C465.635 130.922 468.002 144.793 459.703 147.248C458.322 147.656 456.835 148.03 455.273 148.385Z" fill="#E09E84"/>
<path opacity="0.52" d="M464.957 141.581C465.336 140.35 465.58 139.081 465.685 137.796C465.951 134.865 465.898 131.913 465.527 128.993C470.448 128.324 475.084 126.278 478.909 123.087C479.358 124.76 481.831 132.067 481.146 133.657C479.852 136.662 473.771 141.581 464.957 141.581Z" fill="#0C0C0C"/>
<path d="M468.166 135.364C477.722 136.183 490.028 132.193 492.44 119.36L494.615 107.78C497.027 94.9465 492.289 83.2691 480.294 80.9807C468.298 78.6939 457.376 87.3882 454.965 100.222L454.002 105.348C453.075 110.272 451.116 133.903 468.166 135.364Z" fill="#E09E84"/>
<path d="M457.419 105.907C458.25 105.907 458.923 105.229 458.923 104.392C458.923 103.556 458.25 102.878 457.419 102.878C456.589 102.878 455.916 103.556 455.916 104.392C455.916 105.229 456.589 105.907 457.419 105.907Z" fill="#0C0C0C"/>
<path d="M472.826 107.98C473.656 107.98 474.329 107.301 474.329 106.465C474.329 105.628 473.656 104.95 472.826 104.95C471.995 104.95 471.322 105.628 471.322 106.465C471.322 107.301 471.995 107.98 472.826 107.98Z" fill="#0C0C0C"/>
<path d="M464.371 117.57C464.363 117.569 464.355 117.568 464.348 117.566C463.862 117.47 463.382 117.347 462.909 117.197C462.203 116.969 461.28 116.59 461.402 115.95C461.538 115.219 465.009 107.707 465.405 106.854C465.44 106.78 465.502 106.722 465.579 106.694C465.656 106.665 465.74 106.669 465.815 106.704C465.889 106.739 465.946 106.802 465.974 106.879C466.002 106.956 465.998 107.042 465.964 107.116C464.483 110.316 462.099 115.576 462.007 116.064C462.087 116.292 463.258 116.725 464.464 116.956C464.542 116.97 464.613 117.015 464.66 117.08C464.706 117.146 464.726 117.227 464.714 117.307C464.702 117.387 464.66 117.459 464.596 117.508C464.532 117.557 464.452 117.579 464.373 117.569L464.371 117.57Z" fill="#0C0C0C"/>
<path d="M466.148 123.111C464.191 122.855 462.321 122.139 460.689 121.022C460.62 120.977 460.573 120.906 460.556 120.826C460.539 120.745 460.554 120.661 460.599 120.592C460.644 120.523 460.714 120.475 460.794 120.458C460.874 120.441 460.957 120.457 461.025 120.502C464.557 122.819 468.066 123.194 471.173 121.586C471.236 121.552 471.301 121.521 471.367 121.494C471.444 121.466 471.528 121.47 471.602 121.504C471.676 121.539 471.733 121.602 471.761 121.68C471.789 121.757 471.785 121.843 471.75 121.917C471.716 121.992 471.653 122.049 471.576 122.077C471.552 122.087 471.511 122.109 471.455 122.138C469.821 122.987 467.973 123.326 466.148 123.111Z" fill="#0C0C0C"/>
<path d="M504.213 111.816L493.458 109.83C485.314 106.51 482.852 92.3088 482.852 92.3088C482.852 92.3088 472.959 102.021 448.988 96.4974C448.988 96.4974 453.795 62.822 489.213 72.6133C500.633 75.771 508.83 87.3633 507.809 102.855C507.09 113.712 504.213 111.816 504.213 111.816Z" fill="#0A0A0A"/>
<path d="M490.96 123.127C494.606 123.822 498.299 120.457 498.989 116.783C499.679 113.108 497.105 110.522 493.458 109.828L491.117 111.93L487.826 122.528L490.96 123.127Z" fill="#E09E84"/>
<path d="M463.207 100.716C462.144 100.024 460.915 99.6332 459.65 99.5845C459.027 99.5566 458.404 99.623 457.801 99.7814C457.204 99.9359 456.628 100.166 456.087 100.465C456.018 100.507 455.967 100.573 455.944 100.651C455.921 100.729 455.928 100.813 455.963 100.886C455.998 100.959 456.059 101.016 456.134 101.046C456.209 101.076 456.292 101.077 456.367 101.049L456.39 101.038C456.89 100.792 457.418 100.61 457.963 100.496C458.501 100.38 459.054 100.347 459.602 100.397C460.69 100.489 461.734 100.869 462.629 101.499L462.658 101.52C462.709 101.563 462.768 101.595 462.832 101.613C462.895 101.632 462.962 101.638 463.028 101.629C463.094 101.621 463.158 101.599 463.215 101.565C463.272 101.531 463.322 101.486 463.36 101.432C463.399 101.377 463.427 101.316 463.441 101.25C463.456 101.185 463.457 101.118 463.444 101.052C463.431 100.986 463.405 100.924 463.368 100.869C463.33 100.814 463.282 100.767 463.225 100.731L463.207 100.716Z" fill="#0C0C0C"/>
<path d="M472.798 102.99C473.858 102.729 474.968 102.755 476.015 103.064C476.545 103.217 477.048 103.449 477.509 103.754C477.975 104.059 478.402 104.421 478.779 104.834L478.796 104.851C478.857 104.905 478.935 104.935 479.015 104.934C479.096 104.933 479.173 104.902 479.232 104.846C479.291 104.791 479.327 104.716 479.334 104.635C479.34 104.554 479.316 104.473 479.267 104.409C478.87 103.934 478.416 103.51 477.915 103.148C477.409 102.781 476.852 102.492 476.261 102.292C475.064 101.877 473.778 101.794 472.538 102.052C472.42 102.086 472.319 102.164 472.256 102.271C472.193 102.377 472.172 102.503 472.197 102.624C472.223 102.745 472.294 102.852 472.395 102.923C472.496 102.993 472.62 103.023 472.741 103.005L472.761 103L472.798 102.99Z" fill="#0C0C0C"/>
<path d="M465.731 126.024C465.377 125.983 465.026 125.912 464.684 125.812C464.605 125.789 464.539 125.736 464.499 125.664C464.46 125.592 464.45 125.507 464.473 125.428C464.496 125.349 464.548 125.282 464.62 125.242C464.692 125.202 464.776 125.193 464.854 125.216C466.916 125.812 468.089 125.022 468.139 124.987C468.205 124.94 468.288 124.922 468.369 124.936C468.449 124.95 468.521 124.996 468.568 125.063C468.615 125.13 468.633 125.214 468.619 125.295C468.605 125.376 468.56 125.448 468.493 125.495C467.661 125.987 466.685 126.174 465.731 126.024Z" fill="#0C0C0C"/>
<path d="M493.435 109.693L493.543 109.393C479.917 104.466 483.249 90.9981 483.284 90.8626L482.979 90.7818C482.942 90.92 479.533 104.666 493.435 109.693Z" fill="#0C0C0C"/>
<path opacity="0.1" d="M477.112 116.718C477.236 115.556 476.061 114.476 474.488 114.305C472.915 114.135 471.539 114.939 471.415 116.101C471.291 117.263 472.466 118.343 474.039 118.514C475.612 118.684 476.988 117.88 477.112 116.718Z" fill="#0C0C0C"/>
<path opacity="0.1" d="M457.389 114.069C457.261 115.229 455.886 116.032 454.313 115.864C454.041 115.834 453.773 115.777 453.513 115.691C453.424 114.31 453.405 112.98 453.43 111.75C453.865 111.635 454.318 111.603 454.764 111.656C456.336 111.824 457.511 112.904 457.389 114.069Z" fill="#0C0C0C"/>
<path d="M426.964 191.876C427.682 200.368 431.173 253.153 431.864 263.616L523.166 263.811C523.705 254.375 529.91 213.123 531.947 194.674C533.892 177.069 537.708 168.255 534.909 163.05C530.339 154.544 517.851 149.629 509.335 148.468C504.136 147.759 496.315 147.251 496.315 147.251C496.315 147.251 495.654 160.742 479.865 161.493C458.372 162.514 459.808 147.251 459.701 147.251C456.219 147.251 436.329 149.47 431.462 152.376C418.204 160.283 425.441 173.879 426.964 191.876Z" fill="#87ADF7"/>
<path d="M367.7 197.808L376.501 240.894C376.68 241.769 377.151 242.555 377.836 243.123C378.521 243.69 379.378 244.004 380.265 244.011L440.866 244.531C441.444 244.536 442.016 244.41 442.54 244.164C443.064 243.917 443.526 243.556 443.893 243.106C444.261 242.657 444.523 242.13 444.662 241.565C444.801 240.999 444.813 240.41 444.696 239.839L435.895 196.754C435.716 195.879 435.245 195.093 434.56 194.525C433.875 193.958 433.018 193.645 432.131 193.637L371.53 193.117C370.952 193.112 370.38 193.237 369.856 193.484C369.333 193.73 368.87 194.092 368.503 194.541C368.136 194.991 367.873 195.518 367.734 196.083C367.595 196.648 367.584 197.238 367.7 197.808Z" fill="#292A2E"/>
<path d="M424.21 228.413C424.177 228.98 424.35 229.54 424.695 229.989C425.04 230.439 425.535 230.747 426.088 230.858L427.953 231.273C427.92 231.284 427.89 231.303 427.866 231.328C427.841 231.354 427.824 231.385 427.814 231.419C427.81 231.459 427.819 231.499 427.839 231.533C427.391 231.66 426.993 231.925 426.7 232.29C426.408 232.656 426.236 233.103 426.208 233.572C426.205 234.118 426.386 234.649 426.72 235.079C427.053 235.509 427.522 235.813 428.048 235.942L443.801 239.466C444.607 239.648 445.43 239.738 446.255 239.738C448.094 239.737 449.905 239.287 451.532 238.424C453.159 237.562 454.554 236.314 455.596 234.788C456.701 233.174 457.136 231.189 456.81 229.256C456.484 227.322 455.422 225.594 453.85 224.437L440.45 214.568C440.155 214.35 439.812 214.208 439.451 214.153L440.684 220.186L440.355 220.109L440.285 220.097L430.008 217.992C428.864 217.737 427.296 218.154 427.093 219.469C426.984 219.972 427.048 220.496 427.273 220.958C427.497 221.419 427.871 221.79 428.331 222.011C428.325 222.017 428.312 222.024 428.312 222.037C428.312 222.05 428.318 222.056 428.318 222.068L426.542 221.673C426.217 221.601 425.88 221.602 425.556 221.676C425.231 221.751 424.927 221.897 424.665 222.104C424.404 222.311 424.191 222.574 424.042 222.873C423.893 223.173 423.812 223.502 423.805 223.837C423.805 224.373 423.989 224.892 424.325 225.306C424.662 225.721 425.13 226.005 425.651 226.111L426.416 226.283C426.423 226.309 426.416 226.334 426.429 226.354C425.871 226.358 425.335 226.571 424.925 226.951C424.514 227.332 424.259 227.853 424.21 228.413Z" fill="#E09E84"/>
<g opacity="0.25">
<path d="M438.55 224.159C438.538 224.212 438.506 224.259 438.461 224.288C438.415 224.318 438.36 224.328 438.307 224.317L428.474 222.286C428.446 222.281 428.42 222.271 428.397 222.256C428.374 222.24 428.354 222.221 428.338 222.197C428.322 222.174 428.311 222.148 428.306 222.121C428.301 222.093 428.301 222.065 428.306 222.038C428.312 222.01 428.323 221.984 428.338 221.961C428.354 221.938 428.374 221.919 428.398 221.904C428.421 221.889 428.447 221.878 428.475 221.874C428.502 221.869 428.53 221.87 428.557 221.876L438.39 223.907C438.417 223.913 438.442 223.924 438.465 223.939C438.487 223.954 438.507 223.974 438.522 223.997C438.537 224.02 438.547 224.046 438.552 224.073C438.557 224.1 438.557 224.127 438.552 224.154L438.55 224.159Z" fill="#0C0C0C"/>
</g>
<g opacity="0.25">
<path d="M437.781 228.552C437.769 228.605 437.736 228.651 437.691 228.681C437.645 228.71 437.59 228.721 437.537 228.71L426.563 226.443C426.536 226.438 426.511 226.427 426.488 226.411C426.466 226.396 426.446 226.376 426.431 226.353C426.416 226.331 426.406 226.305 426.401 226.278C426.396 226.251 426.396 226.223 426.401 226.196C426.414 226.143 426.447 226.096 426.492 226.066C426.538 226.036 426.593 226.024 426.647 226.034L437.62 228.3C437.674 228.312 437.721 228.344 437.752 228.39C437.782 228.437 437.793 228.493 437.782 228.548L437.781 228.552Z" fill="#0C0C0C"/>
</g>
<g opacity="0.25">
<path d="M436.975 233.314C436.962 233.368 436.93 233.414 436.884 233.443C436.839 233.473 436.783 233.483 436.73 233.473L427.977 231.665C427.923 231.653 427.877 231.62 427.847 231.574C427.817 231.528 427.807 231.472 427.818 231.418C427.829 231.364 427.861 231.317 427.906 231.286C427.951 231.256 428.007 231.244 428.061 231.255L436.814 233.063C436.868 233.074 436.915 233.106 436.945 233.152C436.975 233.199 436.986 233.255 436.975 233.309L436.975 233.314Z" fill="#0C0C0C"/>
</g>
<path d="M444.777 245.742L530.244 261.299C532.911 261.591 535.609 261.257 538.126 260.323C540.644 259.389 542.912 257.88 544.753 255.914C546.594 253.949 547.957 251.58 548.737 248.995C549.516 246.409 549.69 243.677 549.245 241.012L537.28 169.377C536.908 167.107 536.094 164.933 534.887 162.98C533.679 161.027 532.1 159.333 530.241 157.996C528.382 156.658 526.279 155.704 524.053 155.186C521.827 154.669 519.522 154.599 517.269 154.981C515.016 155.363 512.86 156.188 510.925 157.411C508.989 158.633 507.313 160.228 505.99 162.105C504.668 163.981 503.726 166.102 503.219 168.346C502.712 170.589 502.65 172.912 503.036 175.18L511.197 224.494L448.534 216.567L444.777 245.742Z" fill="#87ADF7"/>
<path d="M530.245 261.618C530.323 261.617 530.398 261.586 530.456 261.532C530.513 261.479 530.549 261.405 530.556 261.326C530.562 261.247 530.54 261.169 530.492 261.106C530.445 261.043 530.376 261 530.298 260.986L445.126 245.483L448.805 216.923L511.15 224.81C511.199 224.817 511.249 224.811 511.296 224.795C511.342 224.778 511.385 224.751 511.419 224.714C511.453 224.679 511.478 224.636 511.492 224.589C511.507 224.542 511.511 224.492 511.503 224.443L506.32 192.928C506.313 192.886 506.299 192.846 506.277 192.811C506.255 192.775 506.227 192.744 506.193 192.72C506.159 192.695 506.121 192.678 506.08 192.669C506.039 192.659 505.997 192.658 505.956 192.666C505.874 192.68 505.8 192.726 505.751 192.795C505.702 192.864 505.683 192.949 505.696 193.032L510.811 224.126L448.574 216.254C448.491 216.244 448.407 216.268 448.341 216.319C448.275 216.37 448.232 216.446 448.22 216.529L444.463 245.704C444.453 245.785 444.474 245.867 444.521 245.933C444.569 245.999 444.641 246.044 444.72 246.058L530.188 261.612C530.207 261.616 530.226 261.618 530.245 261.618Z" fill="#0C0C0C"/>
<path d="M511.247 224.182L511.147 224.811L516.644 225.698L516.744 225.069L511.247 224.182Z" fill="#0C0C0C"/>
<path d="M587.444 491.538H0.37687C0.276918 491.538 0.181059 491.498 0.110383 491.427C0.0397058 491.356 0 491.26 0 491.159C0 491.058 0.0397058 490.962 0.110383 490.891C0.181059 490.82 0.276918 490.78 0.37687 490.78H587.443C587.543 490.78 587.639 490.82 587.71 490.891C587.78 490.962 587.82 491.058 587.82 491.159C587.82 491.26 587.78 491.356 587.71 491.427C587.639 491.498 587.543 491.538 587.443 491.538H587.444Z" fill="#292A2E"/>
<g opacity="0.65">
<path d="M587.444 491.538H0.37687C0.276918 491.538 0.181059 491.498 0.110383 491.427C0.0397058 491.356 0 491.26 0 491.159C0 491.058 0.0397058 490.962 0.110383 490.891C0.181059 490.82 0.276918 490.78 0.37687 490.78H587.443C587.543 490.78 587.639 490.82 587.71 490.891C587.78 490.962 587.82 491.058 587.82 491.159C587.82 491.26 587.78 491.356 587.71 491.427C587.639 491.498 587.543 491.538 587.443 491.538H587.444Z" fill="#292A2E"/>
</g>
<path d="M36.4783 491.86L35.4209 491.655L51.9472 326.244L53.0045 326.449L36.4783 491.86Z" fill="#494949"/>
<path d="M98.0146 491.86L96.9573 491.655L113.483 326.244L114.54 326.449L98.0146 491.86Z" fill="#494949"/>
<path d="M234.037 491.86L235.094 491.655L218.568 326.244L217.51 326.449L234.037 491.86Z" fill="#494949"/>
<path d="M172.5 491.86L173.558 491.655L157.032 326.244L155.975 326.449L172.5 491.86Z" fill="#494949"/>
<path d="M150.584 253.446L149.516 253.59L159.171 326.42L160.238 326.276L150.584 253.446Z" fill="#494949"/>
<path d="M39.7707 253.445L38.7034 253.589L48.3577 326.419L49.425 326.275L39.7707 253.445Z" fill="#494949"/>
<path d="M160.146 321.013H51.7582C48.8338 321.013 46.4632 323.401 46.4632 326.346V326.347C46.4632 329.292 48.8338 331.68 51.7582 331.68H160.146C163.07 331.68 165.441 329.292 165.441 326.347V326.346C165.441 323.401 163.07 321.013 160.146 321.013Z" fill="#292A2E"/>
<path opacity="0.8" d="M160.146 321.013H51.7582C48.8338 321.013 46.4632 323.401 46.4632 326.346V326.347C46.4632 329.292 48.8338 331.68 51.7582 331.68H160.146C163.07 331.68 165.441 329.292 165.441 326.347V326.346C165.441 323.401 163.07 321.013 160.146 321.013Z" fill="white"/>
<path d="M160.146 332.222H51.7582C50.9921 332.222 50.2336 332.07 49.5258 331.774C48.8181 331.479 48.175 331.046 47.6333 330.501C47.0917 329.955 46.662 329.307 46.3688 328.595C46.0757 327.882 45.9248 327.118 45.9248 326.346C45.9248 325.575 46.0757 324.811 46.3688 324.098C46.662 323.385 47.0917 322.737 47.6333 322.191C48.175 321.646 48.8181 321.213 49.5258 320.918C50.2336 320.623 50.9921 320.471 51.7582 320.471H160.146C161.693 320.471 163.177 321.09 164.271 322.191C165.365 323.293 165.979 324.788 165.979 326.346C165.979 327.904 165.365 329.399 164.271 330.501C163.177 331.603 161.693 332.222 160.146 332.222ZM51.7582 321.556C51.1335 321.556 50.515 321.68 49.9379 321.92C49.3608 322.161 48.8364 322.514 48.3947 322.959C47.953 323.404 47.6027 323.932 47.3636 324.513C47.1246 325.094 47.0015 325.717 47.0015 326.347C47.0015 326.976 47.1246 327.599 47.3636 328.18C47.6027 328.761 47.953 329.29 48.3947 329.734C48.8364 330.179 49.3608 330.532 49.9379 330.773C50.515 331.014 51.1335 331.138 51.7582 331.138H160.146C161.407 331.138 162.617 330.633 163.509 329.734C164.401 328.836 164.903 327.617 164.903 326.347C164.903 325.076 164.401 323.857 163.509 322.959C162.617 322.06 161.407 321.556 160.146 321.556H51.7582Z" fill="#292A2E"/>
<path d="M219.635 321.013H111.247C108.323 321.013 105.952 323.401 105.952 326.346V326.347C105.952 329.292 108.323 331.68 111.247 331.68H219.635C222.559 331.68 224.93 329.292 224.93 326.347V326.346C224.93 323.401 222.559 321.013 219.635 321.013Z" fill="white"/>
<path d="M219.635 332.222H111.247C110.481 332.222 109.722 332.07 109.015 331.774C108.307 331.479 107.664 331.046 107.122 330.501C106.581 329.955 106.151 329.307 105.858 328.595C105.565 327.882 105.414 327.118 105.414 326.346C105.414 325.575 105.565 324.811 105.858 324.098C106.151 323.385 106.581 322.737 107.122 322.191C107.664 321.646 108.307 321.213 109.015 320.918C109.722 320.623 110.481 320.471 111.247 320.471H219.635C220.401 320.471 221.159 320.623 221.867 320.918C222.575 321.213 223.218 321.646 223.76 322.191C224.301 322.737 224.731 323.385 225.024 324.098C225.317 324.811 225.468 325.575 225.468 326.346C225.468 327.118 225.317 327.882 225.024 328.595C224.731 329.307 224.301 329.955 223.76 330.501C223.218 331.046 222.575 331.479 221.867 331.774C221.159 332.07 220.401 332.222 219.635 332.222ZM111.247 321.556C110.622 321.556 110.004 321.68 109.427 321.92C108.85 322.161 108.325 322.514 107.884 322.959C107.442 323.404 107.092 323.932 106.853 324.513C106.613 325.094 106.49 325.717 106.49 326.347C106.49 326.976 106.613 327.599 106.853 328.18C107.092 328.761 107.442 329.29 107.884 329.734C108.325 330.179 108.85 330.532 109.427 330.773C110.004 331.014 110.622 331.138 111.247 331.138H219.635C220.259 331.138 220.878 331.014 221.455 330.773C222.032 330.532 222.557 330.179 222.998 329.734C223.44 329.29 223.79 328.761 224.029 328.18C224.268 327.599 224.391 326.976 224.391 326.347C224.391 325.717 224.268 325.094 224.029 324.513C223.79 323.932 223.44 323.404 222.998 322.959C222.557 322.514 222.032 322.161 221.455 321.92C220.878 321.68 220.259 321.556 219.635 321.556H111.247Z" fill="#292A2E"/>
<path d="M144.646 253.516H39.5282C37.8095 253.516 36.1496 252.886 34.8583 251.744C33.5669 250.601 32.7324 249.025 32.5104 247.308L25.5571 193.524C25.4272 192.519 25.5116 191.497 25.8048 190.527C26.0981 189.558 26.5933 188.662 27.2575 187.9C27.9217 187.138 28.7396 186.528 29.6565 186.11C30.5735 185.692 31.5684 185.476 32.575 185.476H137.693C139.412 185.476 141.072 186.106 142.363 187.248C143.654 188.39 144.489 189.967 144.711 191.683L151.664 245.466C151.794 246.472 151.71 247.493 151.417 248.463C151.124 249.433 150.629 250.329 149.964 251.091C149.3 251.853 148.482 252.464 147.565 252.882C146.648 253.3 145.653 253.516 144.646 253.516Z" fill="#292A2E"/>
<path opacity="0.8" d="M144.646 253.516H39.5282C37.8095 253.516 36.1496 252.886 34.8583 251.744C33.5669 250.601 32.7324 249.025 32.5104 247.308L25.5571 193.524C25.4272 192.519 25.5116 191.497 25.8048 190.527C26.0981 189.558 26.5933 188.662 27.2575 187.9C27.9217 187.138 28.7396 186.528 29.6565 186.11C30.5735 185.692 31.5684 185.476 32.575 185.476H137.693C139.412 185.476 141.072 186.106 142.363 187.248C143.654 188.39 144.489 189.967 144.711 191.683L151.664 245.466C151.794 246.472 151.71 247.493 151.417 248.463C151.124 249.433 150.629 250.329 149.964 251.091C149.3 251.853 148.482 252.464 147.565 252.882C146.648 253.3 145.653 253.516 144.646 253.516Z" fill="white"/>
<path d="M144.646 254.058H39.5282C37.6799 254.054 35.8959 253.375 34.5071 252.146C33.1183 250.918 32.2191 249.224 31.9763 247.378L25.0236 193.596C24.8836 192.514 24.9744 191.414 25.2898 190.371C25.6052 189.327 26.1381 188.363 26.8528 187.543C27.5675 186.724 28.4476 186.067 29.4344 185.617C30.4212 185.167 31.4919 184.934 32.575 184.934H137.693C139.541 184.939 141.325 185.618 142.714 186.846C144.103 188.075 145.002 189.769 145.245 191.615L152.198 245.398C152.338 246.48 152.247 247.579 151.931 248.623C151.616 249.666 151.083 250.63 150.368 251.45C149.654 252.269 148.774 252.926 147.787 253.376C146.8 253.826 145.729 254.059 144.646 254.058ZM32.575 186.019C31.6451 186.019 30.7258 186.219 29.8786 186.605C29.0314 186.991 28.2758 187.555 27.6622 188.259C27.0485 188.963 26.591 189.79 26.3201 190.686C26.0492 191.582 25.9712 192.526 26.0912 193.455L33.0445 247.238C33.2528 248.823 34.0247 250.278 35.2171 251.332C36.4095 252.387 37.9413 252.97 39.5282 252.974H144.646C145.576 252.974 146.496 252.774 147.343 252.388C148.19 252.001 148.946 251.438 149.559 250.734C150.173 250.03 150.63 249.203 150.901 248.306C151.172 247.41 151.25 246.466 151.13 245.538L144.18 191.755C143.971 190.17 143.199 188.716 142.007 187.661C140.815 186.606 139.283 186.023 137.696 186.019H32.575Z" fill="#292A2E"/>
<path d="M150.59 253.516H45.472C43.7534 253.516 42.0935 252.886 40.8022 251.744C39.511 250.601 38.6765 249.025 38.4547 247.308L31.5014 193.524C31.3715 192.519 31.4559 191.497 31.7492 190.527C32.0424 189.557 32.5376 188.662 33.2018 187.9C33.866 187.138 34.6839 186.528 35.6008 186.11C36.5178 185.692 37.5127 185.476 38.5193 185.476H143.637C145.356 185.476 147.016 186.106 148.307 187.248C149.598 188.39 150.433 189.967 150.655 191.683L157.608 245.466C157.738 246.472 157.654 247.493 157.361 248.463C157.068 249.433 156.572 250.329 155.908 251.091C155.244 251.853 154.426 252.464 153.509 252.882C152.592 253.3 151.597 253.516 150.59 253.516Z" fill="white"/>
<path d="M150.59 254.058H45.472C43.6237 254.054 41.8397 253.375 40.4511 252.146C39.0624 250.918 38.1633 249.224 37.9206 247.378L30.9674 193.596C30.8275 192.514 30.9184 191.414 31.234 190.371C31.5495 189.327 32.0824 188.363 32.7972 187.544C33.5119 186.724 34.392 186.067 35.3787 185.617C36.3655 185.167 37.4361 184.935 38.5193 184.935H143.637C145.485 184.939 147.269 185.618 148.658 186.847C150.047 188.075 150.946 189.769 151.189 191.615L158.142 245.398C158.282 246.48 158.191 247.579 157.875 248.623C157.56 249.666 157.027 250.63 156.312 251.45C155.597 252.269 154.717 252.926 153.731 253.376C152.744 253.826 151.673 254.058 150.59 254.058ZM38.5193 186.019C37.5892 186.019 36.6697 186.219 35.8224 186.605C34.975 186.991 34.2192 187.555 33.6053 188.259C32.9915 188.963 32.5339 189.79 32.2629 190.687C31.9919 191.583 31.9138 192.527 32.0339 193.456L38.9866 247.238C39.1951 248.823 39.9674 250.278 41.1601 251.333C42.3527 252.387 43.8848 252.971 45.472 252.974H150.59C151.52 252.974 152.439 252.774 153.287 252.388C154.134 252.002 154.889 251.438 155.503 250.734C156.117 250.03 156.574 249.203 156.845 248.307C157.116 247.41 157.194 246.467 157.074 245.538L150.121 191.755C149.912 190.17 149.14 188.715 147.948 187.661C146.756 186.606 145.224 186.023 143.637 186.019H38.5193Z" fill="#292A2E"/>
<path d="M139.004 102.498C139.004 102.498 145.989 97.1871 147.72 84.9631C149.06 75.4982 140.392 81.6303 140.392 81.6303C140.392 81.6303 141.291 74.8057 136.354 75.483C131.417 76.1603 128.655 83.3292 128.655 83.3292" fill="#0C0C0C"/>
<path d="M110.84 76.284C110.84 76.284 86.3468 78.9292 95.2011 112.359L97.3681 112.505L101.768 112.802" fill="#0C0C0C"/>
<path d="M134.901 147.268C134.793 147.254 133.599 167.224 110.563 165.485C94.6163 164.281 88.9299 147.24 88.5649 147.24C90.284 146.872 92.409 146.313 93.2531 146.121C95.0936 145.691 96.7605 144.706 98.0319 143.299C99.3033 141.891 100.119 140.127 100.371 138.241C100.837 135.41 100.048 120.927 100.289 118.063L124.768 123.57C124.426 129.62 122.032 143.643 130.421 146.125C131.819 146.533 133.322 146.911 134.901 147.268Z" fill="#E09E84"/>
<path opacity="0.52" d="M125.111 140.391C124.728 139.147 124.481 137.864 124.375 136.565C124.106 133.601 124.161 130.617 124.537 127.665C119.561 126.988 114.874 124.92 111.008 121.695C110.553 123.386 108.053 130.773 108.746 132.38C110.052 135.418 116.2 140.391 125.111 140.391Z" fill="#0C0C0C"/>
<path d="M120.06 136.439C110.403 135.567 98.8443 129.421 98.6774 116.217L98.5245 104.303C98.3576 91.0995 105.108 80.3077 117.45 80.1499C129.793 79.9915 139.154 90.5773 139.321 103.781L139.387 109.055C139.379 110.867 139.248 112.675 138.995 114.468C138.362 119.213 137.38 126.427 134.183 131.308C131.166 135.915 126.229 136.996 120.06 136.439Z" fill="#E09E84"/>
<path d="M124.539 124.37C126.532 124.461 128.519 124.079 130.338 123.254C130.376 123.238 130.41 123.215 130.439 123.185C130.467 123.156 130.49 123.121 130.505 123.083C130.52 123.045 130.528 123.004 130.527 122.963C130.527 122.921 130.518 122.881 130.502 122.843C130.486 122.805 130.463 122.771 130.434 122.742C130.405 122.713 130.37 122.69 130.332 122.675C130.294 122.659 130.254 122.652 130.213 122.652C130.172 122.653 130.131 122.661 130.094 122.677C126.174 124.358 122.615 124.114 119.801 121.965C119.744 121.919 119.685 121.877 119.624 121.838C119.554 121.804 119.473 121.799 119.398 121.822C119.324 121.846 119.261 121.897 119.222 121.965C119.183 122.034 119.17 122.114 119.188 122.191C119.205 122.268 119.25 122.335 119.314 122.38C119.337 122.395 119.373 122.424 119.422 122.463C120.901 123.598 122.683 124.262 124.539 124.37Z" fill="#0C0C0C"/>
<path d="M124.447 127.344C124.807 127.366 125.168 127.357 125.527 127.318C125.607 127.307 125.68 127.265 125.73 127.201C125.78 127.136 125.804 127.055 125.795 126.974C125.786 126.892 125.747 126.818 125.684 126.765C125.622 126.713 125.541 126.688 125.46 126.694C123.304 126.925 122.274 125.93 122.23 125.888C122.171 125.831 122.093 125.8 122.012 125.801C121.931 125.802 121.853 125.835 121.796 125.893C121.738 125.951 121.705 126.029 121.704 126.11C121.703 126.192 121.733 126.271 121.789 126.33C122.532 126.967 123.471 127.325 124.447 127.344Z" fill="#0C0C0C"/>
<path d="M135.246 111.594C136.086 111.594 136.767 110.909 136.767 110.063C136.767 109.217 136.086 108.532 135.246 108.532C134.406 108.532 133.726 109.217 133.726 110.063C133.726 110.909 134.406 111.594 135.246 111.594Z" fill="#0C0C0C"/>
<path d="M120.393 110.655C121.232 110.655 121.913 109.969 121.913 109.124C121.913 108.278 121.232 107.592 120.393 107.592C119.553 107.592 118.872 108.278 118.872 109.124C118.872 109.969 119.553 110.655 120.393 110.655Z" fill="#0C0C0C"/>
<path d="M99.4936 120.23C95.7432 120.278 92.6513 116.275 92.6023 112.497C92.5533 108.72 95.5693 106.597 99.3202 106.548L101.285 109.055L102.717 120.188L99.4936 120.23Z" fill="#E09E84"/>
<path d="M103.226 114.159C103.226 114.159 104.492 95.4757 110.117 94.3223C113.863 93.5538 122.947 98.9056 131.362 97.2896C135.043 96.5846 138.537 97.5 138.893 99.2515C139.034 99.9451 141.327 89.9786 135.562 82.4166C130.972 76.3973 115.953 74.6945 109.12 76.6684C90.1989 82.1351 98.5482 107.371 98.5482 107.371L99.3918 113.812L103.226 114.159Z" fill="#0C0C0C"/>
<path d="M126.807 119.961H126.831C128.039 119.949 130.066 119.792 130.058 118.881C130.05 118.127 127.917 110.002 127.674 109.078C127.653 108.998 127.601 108.93 127.531 108.889C127.46 108.847 127.376 108.836 127.297 108.857C127.218 108.878 127.151 108.93 127.11 109.001C127.069 109.072 127.057 109.157 127.078 109.236C128.026 112.835 129.436 118.375 129.442 118.889C129.325 119.106 128.076 119.329 126.825 119.342C126.745 119.342 126.668 119.373 126.611 119.429C126.553 119.486 126.52 119.562 126.517 119.643C126.515 119.723 126.544 119.802 126.598 119.861C126.652 119.921 126.727 119.957 126.807 119.962V119.961Z" fill="#0C0C0C"/>
<path d="M130.931 101.76C132.201 101.408 133.542 101.408 134.813 101.76C135.437 101.929 136.032 102.191 136.579 102.538C137.119 102.878 137.614 103.286 138.053 103.751C138.134 103.834 138.18 103.945 138.182 104.061C138.184 104.177 138.141 104.29 138.062 104.375C137.984 104.46 137.876 104.512 137.761 104.519C137.645 104.526 137.532 104.488 137.444 104.412L137.417 104.389C137.01 104.01 136.558 103.684 136.071 103.418C135.593 103.155 135.078 102.966 134.544 102.857C133.492 102.635 132.4 102.697 131.379 103.035L131.337 103.05C131.254 103.08 131.165 103.093 131.077 103.088C130.989 103.083 130.902 103.061 130.822 103.023C130.742 102.984 130.671 102.931 130.612 102.864C130.553 102.798 130.507 102.721 130.477 102.637C130.448 102.553 130.435 102.464 130.44 102.375C130.445 102.286 130.467 102.199 130.505 102.118C130.543 102.038 130.596 101.966 130.662 101.906C130.728 101.847 130.805 101.801 130.888 101.771C130.902 101.768 130.918 101.763 130.931 101.76Z" fill="#0C0C0C"/>
<path d="M121.936 102.53C120.969 102.057 119.895 101.85 118.823 101.929C118.279 101.964 117.744 102.083 117.236 102.28C116.718 102.478 116.227 102.741 115.775 103.062L115.746 103.081C115.649 103.147 115.53 103.172 115.415 103.151C115.299 103.13 115.197 103.064 115.129 102.968C115.061 102.871 115.034 102.752 115.053 102.635C115.071 102.519 115.134 102.414 115.228 102.344C115.725 101.942 116.27 101.604 116.851 101.34C117.438 101.069 118.063 100.889 118.704 100.805C120.009 100.627 121.338 100.806 122.551 101.325C122.715 101.397 122.844 101.531 122.91 101.699C122.976 101.867 122.972 102.054 122.901 102.219C122.83 102.385 122.696 102.515 122.529 102.581C122.363 102.647 122.177 102.644 122.013 102.572C122 102.566 121.987 102.561 121.975 102.554L121.936 102.53Z" fill="#0C0C0C"/>
<path d="M129.123 88.8975C131.899 88.3132 133.458 84.5029 132.604 80.3869C131.75 76.2709 128.808 73.4079 126.031 73.9922C123.255 74.5764 121.696 78.3867 122.55 82.5027C123.404 86.6187 126.347 89.4817 129.123 88.8975Z" fill="#0C0C0C"/>
<path d="M283.97 463.206C283.97 463.206 286.857 478.278 300.868 479.118C314.878 479.958 311.84 491.2 311.84 491.2H258.3V464.257L283.97 463.206Z" fill="#87ADF7"/>
<path d="M182.115 453.691C182.115 453.691 178.098 468.498 190.303 475.481C202.508 482.464 194.854 491.2 194.854 491.2L146.813 467.394L158.62 443.219L182.115 453.691Z" fill="#87ADF7"/>
<path d="M152.359 449.508L192.872 320.777H119.436C104.685 320.777 98.5358 308.177 98.5358 293.32C98.5358 278.463 113.037 265.438 127.788 265.438H226.899C235.896 265.438 245.985 270.98 250.923 278.556C255.861 286.131 254.526 297.871 250.948 306.185L186.073 464.892" fill="#262626"/>
<path opacity="0.8" d="M152.359 449.508L192.872 320.777H119.436C104.685 320.777 98.5358 308.177 98.5358 293.32C98.5358 278.463 113.037 265.438 127.788 265.438H226.899C235.896 265.438 245.985 270.98 250.923 278.556C255.861 286.131 254.526 297.871 250.948 306.185L186.073 464.892" fill="#0A0A0A"/>
<path d="M255.222 477.203L187.482 320.777L98.5364 320.771C77.6944 319.126 68.1499 307.621 68.453 292.767C68.7523 278.101 76.125 263.616 90.6205 263.616H210.502C221.226 263.837 229.664 275.775 233.643 285.808L289.958 467.627" fill="#262626"/>
<path d="M62.3854 263.795C62.3854 263.795 58.4352 289.741 64.6967 304.166C72.5135 322.175 101.817 320.772 101.817 320.772L100.166 263.616L62.3854 263.795Z" fill="#262626"/>
<path d="M236.19 263.285L173.36 250.171C170.742 249.625 168.303 248.422 166.269 246.674C164.234 244.927 162.671 242.691 161.722 240.173L137.01 174.582C136.269 172.616 135.92 170.523 135.983 168.421C136.045 166.319 136.518 164.25 137.375 162.332C138.231 160.414 139.455 158.685 140.974 157.243C142.494 155.802 144.281 154.676 146.233 153.93C148.185 153.183 150.264 152.832 152.351 152.895C154.438 152.958 156.492 153.435 158.396 154.297C160.3 155.16 162.017 156.392 163.448 157.923C164.879 159.454 165.997 161.253 166.738 163.22L188.355 220.592L242.643 231.923C242.643 231.923 237.28 263.511 236.19 263.285Z" fill="#87ADF7"/>
<path d="M163.521 191.239C162.795 199.824 157.653 253.389 156.953 263.964H62.4263C61.8831 254.426 60.1199 213.931 58.0606 195.279C56.0944 177.481 55.3816 167.324 57.646 161.793C61.6397 152.038 71.6338 148.528 80.242 147.354C85.4988 146.637 93.405 146.123 93.405 146.123C93.405 146.123 94.0742 159.763 110.036 160.522C131.766 161.552 130.315 146.123 130.422 146.123C133.942 146.123 153.103 148.701 157.894 151.847C164.661 156.289 166.662 162.344 166.741 167.906C166.832 174.31 164.345 181.501 163.521 191.239Z" fill="#87ADF7"/>
<path d="M159.805 235.008C159.797 235.009 159.79 235.009 159.782 235.008C159.711 235.002 159.645 234.968 159.599 234.913C159.553 234.859 159.53 234.788 159.536 234.716L161.99 205.024C161.992 204.988 162.001 204.953 162.017 204.921C162.033 204.889 162.055 204.86 162.083 204.837C162.11 204.814 162.141 204.797 162.175 204.786C162.209 204.776 162.245 204.772 162.281 204.776C162.352 204.782 162.417 204.817 162.463 204.871C162.509 204.926 162.532 204.997 162.526 205.069L160.073 234.761C160.067 234.829 160.036 234.891 159.986 234.937C159.937 234.983 159.872 235.008 159.805 235.008Z" fill="#0C0C0C"/>
<path d="M204.827 252.827L225.568 188.609C225.932 187.48 226.642 186.497 227.595 185.8C228.549 185.102 229.697 184.727 230.875 184.727H315.375C316.256 184.727 317.125 184.937 317.909 185.34C318.694 185.743 319.373 186.327 319.891 187.045C320.408 187.763 320.75 188.594 320.887 189.47C321.025 190.346 320.955 191.243 320.682 192.087L299.941 256.305C299.576 257.433 298.867 258.416 297.913 259.114C296.96 259.811 295.812 260.187 294.634 260.187H210.132C209.251 260.186 208.383 259.976 207.598 259.573C206.814 259.17 206.135 258.586 205.618 257.868C205.1 257.15 204.759 256.319 204.621 255.443C204.484 254.567 204.554 253.671 204.827 252.827Z" fill="#292A2E"/>
<path d="M204.827 252.827L225.568 188.609C225.932 187.48 226.642 186.497 227.595 185.8C228.549 185.102 229.697 184.727 230.875 184.727H315.375C316.256 184.727 317.125 184.937 317.909 185.34C318.694 185.743 319.373 186.327 319.891 187.045C320.408 187.763 320.75 188.594 320.887 189.47C321.025 190.346 320.955 191.243 320.682 192.087L299.941 256.305C299.576 257.433 298.867 258.416 297.913 259.114C296.96 259.811 295.812 260.187 294.634 260.187H210.132C209.251 260.186 208.383 259.976 207.598 259.573C206.814 259.17 206.135 258.586 205.618 257.868C205.1 257.15 204.759 256.319 204.621 255.443C204.484 254.567 204.554 253.671 204.827 252.827Z" fill="#292A2E"/>
<path d="M221.746 254.98H165.181C163.772 254.98 162.63 256.131 162.63 257.55V257.616C162.63 259.036 163.772 260.187 165.181 260.187H221.746C223.156 260.187 224.298 259.036 224.298 257.616V257.55C224.298 256.131 223.156 254.98 221.746 254.98Z" fill="#292A2E"/>
<path d="M221.746 254.98H165.181C163.772 254.98 162.63 256.131 162.63 257.55V257.616C162.63 259.036 163.772 260.187 165.181 260.187H221.746C223.156 260.187 224.298 259.036 224.298 257.616V257.55C224.298 256.131 223.156 254.98 221.746 254.98Z" fill="#292A2E"/>
<path d="M262.754 234.516C267.649 234.516 271.617 230.519 271.617 225.589C271.617 220.66 267.649 216.663 262.754 216.663C257.86 216.663 253.892 220.66 253.892 225.589C253.892 230.519 257.86 234.516 262.754 234.516Z" fill="white"/>
<path d="M200.099 237.784L185.981 232.8L188.008 232.659C188.662 232.6 189.269 232.294 189.706 231.802C190.144 231.31 190.38 230.669 190.366 230.008C190.347 229.668 190.26 229.335 190.109 229.029C189.958 228.724 189.747 228.453 189.489 228.232C189.23 228.011 188.93 227.846 188.606 227.746C188.283 227.646 187.942 227.614 187.605 227.651L162.63 230.324L163.276 238.408C163.477 240.919 164.419 243.312 165.979 245.281C167.54 247.249 169.649 248.704 172.035 249.457L182.851 252.851C183.409 253.038 184.015 253.025 184.565 252.814C185.116 252.603 185.577 252.207 185.871 251.694C186.126 251.224 186.226 250.685 186.156 250.154C186.085 249.623 185.848 249.129 185.479 248.744C185.503 248.726 185.523 248.705 185.538 248.679C185.554 248.654 185.563 248.626 185.567 248.597C185.572 248.567 185.57 248.538 185.562 248.509C185.554 248.481 185.541 248.454 185.522 248.431L187.514 249.061C188.136 249.271 188.814 249.236 189.411 248.962C190.008 248.688 190.479 248.196 190.73 247.586C190.935 247.032 190.939 246.423 190.742 245.867C190.545 245.31 190.16 244.841 189.653 244.543C189.677 244.53 189.697 244.513 189.715 244.493L190.534 244.752C191.093 244.939 191.698 244.926 192.249 244.715C192.799 244.504 193.26 244.108 193.554 243.595C193.864 243.025 193.943 242.356 193.774 241.729C193.605 241.101 193.202 240.564 192.649 240.23C192.653 240.213 192.656 240.196 192.657 240.179L198.536 242.255C199.124 242.463 199.771 242.426 200.333 242.154C200.895 241.882 201.327 241.396 201.533 240.803C201.739 240.21 201.703 239.559 201.433 238.992C201.163 238.426 200.68 237.991 200.091 237.784H200.099Z" fill="#E09E84"/>
<path opacity="0.2" d="M192.433 240.41C192.406 240.411 192.378 240.406 192.353 240.396L186.666 238.316C186.607 238.295 186.56 238.251 186.534 238.194C186.508 238.137 186.505 238.072 186.527 238.013C186.548 237.955 186.592 237.907 186.648 237.88C186.705 237.854 186.769 237.852 186.827 237.873L192.514 239.955C192.565 239.974 192.609 240.011 192.637 240.059C192.664 240.107 192.674 240.163 192.665 240.218C192.655 240.273 192.627 240.322 192.585 240.358C192.542 240.394 192.489 240.413 192.434 240.413L192.433 240.41Z" fill="#0A0A0A"/>
<path opacity="0.2" d="M189.558 244.575C189.531 244.575 189.505 244.571 189.48 244.562L184.997 242.96C184.968 242.949 184.942 242.933 184.919 242.913C184.896 242.892 184.877 242.867 184.864 242.839C184.851 242.811 184.843 242.78 184.842 242.75C184.84 242.719 184.845 242.688 184.855 242.658C184.865 242.629 184.881 242.602 184.902 242.579C184.922 242.556 184.947 242.538 184.975 242.524C185.003 242.511 185.033 242.503 185.064 242.502C185.094 242.5 185.125 242.505 185.154 242.515L189.637 244.117C189.689 244.136 189.733 244.172 189.76 244.22C189.788 244.268 189.799 244.325 189.789 244.379C189.78 244.434 189.751 244.484 189.709 244.52C189.667 244.556 189.613 244.575 189.558 244.575Z" fill="#0A0A0A"/>
<path opacity="0.2" d="M185.338 248.8C185.309 248.8 185.28 248.795 185.254 248.784L183.154 247.978C183.124 247.968 183.096 247.952 183.073 247.931C183.049 247.91 183.03 247.884 183.016 247.855C183.003 247.827 182.995 247.795 182.994 247.764C182.992 247.732 182.998 247.7 183.009 247.67C183.02 247.641 183.037 247.614 183.059 247.591C183.081 247.568 183.108 247.55 183.137 247.537C183.166 247.525 183.197 247.519 183.229 247.519C183.261 247.519 183.292 247.525 183.321 247.538L185.42 248.344C185.471 248.364 185.514 248.401 185.541 248.449C185.567 248.497 185.577 248.553 185.567 248.607C185.557 248.661 185.528 248.71 185.486 248.745C185.445 248.78 185.392 248.8 185.337 248.8H185.338Z" fill="#0A0A0A"/>
<path d="M173.683 225.54L114.461 225.5L92.0569 170.452L58.635 184.605L86.5885 249.938L86.862 250.589C88.2295 253.765 90.5331 256.44 93.4606 258.253C96.3882 260.066 99.7982 260.929 103.229 260.725L174.58 256.479L173.683 225.54Z" fill="#87ADF7"/>
<path d="M102.247 261.025C98.9268 261.019 95.6803 260.039 92.9042 258.205C90.1281 256.37 87.9426 253.761 86.6149 250.696L86.3408 250.046L62.5227 194.376L63.0169 194.162L87.1097 250.483C88.4617 253.602 90.7297 256.23 93.6086 258.013C96.4875 259.795 99.8393 260.647 103.213 260.454L174.303 256.224L173.423 225.812L114.281 225.772L97.0531 183.446L97.5511 183.24L114.642 225.23L173.944 225.27L174.856 256.735L174.595 256.75L103.244 260.996C102.911 261.015 102.579 261.025 102.247 261.025Z" fill="#0C0C0C"/>
<path d="M458.165 265.383L457.093 265.492L479.79 491.811L480.862 491.702L458.165 265.383Z" fill="#494949"/>
<path d="M36.4127 265.39L13.6619 491.703L14.7332 491.812L37.484 265.498L36.4127 265.39Z" fill="#494949"/>
<path d="M130.214 265.386L107.501 491.703L108.573 491.812L131.285 265.495L130.214 265.386Z" fill="#494949"/>
<path d="M552.005 265.382L550.933 265.491L573.704 491.803L574.775 491.694L552.005 265.382Z" fill="#494949"/>
<path d="M572.472 260.995H17.3947C14.9583 260.995 12.9832 262.985 12.9832 265.438C12.9832 267.892 14.9583 269.882 17.3947 269.882H572.472C574.908 269.882 576.883 267.892 576.883 265.438C576.883 262.985 574.908 260.995 572.472 260.995Z" fill="#292A2E"/>
<path opacity="0.8" d="M572.472 260.995H17.3947C14.9583 260.995 12.9832 262.985 12.9832 265.438C12.9832 267.892 14.9583 269.882 17.3947 269.882H572.472C574.908 269.882 576.883 267.892 576.883 265.438C576.883 262.985 574.908 260.995 572.472 260.995Z" fill="white"/>
<path d="M572.472 270.424H17.3969C16.7425 270.431 16.0933 270.307 15.4868 270.059C14.8803 269.812 14.3285 269.446 13.8634 268.982C13.3983 268.519 13.0291 267.967 12.7771 267.358C12.5251 266.75 12.3953 266.097 12.3953 265.438C12.3953 264.779 12.5251 264.127 12.7771 263.518C13.0291 262.91 13.3983 262.358 13.8634 261.895C14.3285 261.431 14.8803 261.065 15.4868 260.817C16.0933 260.57 16.7425 260.446 17.3969 260.453H572.472C573.776 260.467 575.022 260.998 575.939 261.931C576.856 262.865 577.371 264.125 577.371 265.438C577.371 266.752 576.856 268.012 575.939 268.945C575.022 269.879 573.776 270.41 572.472 270.424ZM17.3969 261.538C16.8844 261.531 16.3759 261.628 15.9007 261.821C15.4255 262.014 14.9932 262.301 14.6287 262.664C14.2642 263.026 13.9748 263.459 13.7773 263.935C13.5798 264.411 13.4781 264.922 13.4781 265.438C13.4781 265.955 13.5798 266.466 13.7773 266.942C13.9748 267.418 14.2642 267.85 14.6287 268.213C14.9932 268.576 15.4255 268.862 15.9007 269.056C16.3759 269.249 16.8844 269.345 17.3969 269.339H572.472C573.491 269.327 574.465 268.911 575.181 268.181C575.898 267.45 576.3 266.465 576.3 265.438C576.3 264.412 575.898 263.426 575.181 262.696C574.465 261.966 573.491 261.55 572.472 261.538H17.3969Z" fill="#292A2E"/>
<path d="M572.472 260.995H114.821C112.385 260.995 110.41 262.985 110.41 265.438C110.41 267.892 112.385 269.882 114.821 269.882H572.472C574.908 269.882 576.883 267.892 576.883 265.438C576.883 262.985 574.908 260.995 572.472 260.995Z" fill="white"/>
<path d="M572.472 270.424H114.821C113.517 270.41 112.271 269.879 111.354 268.945C110.437 268.012 109.923 266.752 109.923 265.438C109.923 264.125 110.437 262.865 111.354 261.931C112.271 260.998 113.517 260.467 114.821 260.453H572.472C573.776 260.467 575.022 260.998 575.939 261.931C576.856 262.865 577.37 264.125 577.37 265.438C577.37 266.752 576.856 268.012 575.939 268.945C575.022 269.879 573.776 270.41 572.472 270.424ZM114.821 261.538C113.802 261.55 112.828 261.966 112.112 262.696C111.395 263.426 110.993 264.412 110.993 265.438C110.993 266.465 111.395 267.45 112.112 268.181C112.828 268.911 113.802 269.327 114.821 269.339H572.472C573.491 269.327 574.465 268.911 575.181 268.181C575.898 267.45 576.3 266.465 576.3 265.438C576.3 264.412 575.898 263.426 575.181 262.696C574.465 261.966 573.491 261.55 572.472 261.538H114.821Z" fill="#292A2E"/>
</svg>
