<svg width="100" height="100" viewBox="0 0 128 128" fill="none" xmlns="http://www.w3.org/2000/svg"><path d="M59.944 66.587 48.768 85.98 37.593 66.587h22.35Zm2.993-1.734h-28.35L48.768 89.41l14.17-24.556ZM79.373 42.467l11.175 19.392h-22.35l11.175-19.392Zm0-3.467L65.192 63.556h28.362L79.374 39ZM21 39l11.89 21.72 12.994-21.175L21 39ZM48.769 40.903l12.472 21.6H36.272l12.497-21.6ZM64.453 67.217 76.937 89.41H51.374l12.69-22.193h.389ZM67.156 65.872l12.217 21.853L91.76 65.872H67.155Z" fill="#7E46B7"/></svg>