<svg width="15" height="24" viewBox="0 0 15 25" fill="none" xmlns="http://www.w3.org/2000/svg"><path d="M7.368 19.513c-.553 0-1 .489-1 1.091 0 .603.447 1.091 1 1.091.552 0 1-.488 1-1.09 0-.603-.448-1.092-1-1.092Z" fill="#0F0F0F"/><path fill-rule="evenodd" clip-rule="evenodd" d="M14.368 4.24c0-1.807-1.344-3.272-3-3.272h-8c-1.657 0-3 1.465-3 3.273v17.454c0 1.808 1.343 3.273 3 3.273h8c1.656 0 3-1.465 3-3.273V4.241Zm-2 0c0-.602-.448-1.09-1-1.09h-8c-.553 0-1 .488-1 1.09v12h10v-12Zm-10 17.455v-3.273h10v3.273c0 .603-.448 1.091-1 1.091h-8c-.553 0-1-.488-1-1.09Z" fill="#0F0F0F"/></svg>