<svg width="26" height="25" fill="none" xmlns="http://www.w3.org/2000/svg"><path d="M18.886 15.92H17.73l-.409-.387c1.754-2.012 2.66-4.756 2.163-7.673-.687-3.995-4.078-7.184-8.17-7.673C5.133-.56-.071 4.555.689 10.633c.497 4.023 3.742 7.357 7.805 8.032a9.615 9.615 0 0 0 7.805-2.127l.395.403v1.135l6.211 6.106c.6.59 1.579.59 2.178 0a1.5 1.5 0 0 0 0-2.14l-6.197-6.122Zm-8.77 0c-3.639 0-6.577-2.887-6.577-6.465s2.938-6.466 6.578-6.466c3.639 0 6.576 2.888 6.576 6.466 0 3.578-2.937 6.466-6.577 6.466Z" fill="#000"/></svg>